<svg xmlns="http://www.w3.org/2000/svg" xmlns:xlink="http://www.w3.org/1999/xlink" viewBox="0 0 2317.08 1734.3"><defs><style>.cls-1{isolation:isolate;}.cls-2{opacity:0.07;}.cls-3,.cls-4{fill:#ee612f;}.cls-4,.cls-5{fill-rule:evenodd;}.cls-5{fill:#0163a1;}.cls-6,.cls-67{fill:#ebe9ec;}.cls-7{fill:#497dbb;}.cls-8{fill:#5796ce;}.cls-9{fill:#69aadb;}.cls-10{fill:#cbe1f5;}.cls-11{fill:url(#linear-gradient);}.cls-12{fill:url(#linear-gradient-2);}.cls-13{fill:url(#linear-gradient-3);}.cls-14{fill:url(#linear-gradient-4);}.cls-15{fill:url(#linear-gradient-5);}.cls-16{fill:#233768;}.cls-17{fill:#f6c6c6;}.cls-18{fill:#b7dbf4;}.cls-19{fill:#8cc0e7;}.cls-20{fill:#ef622f;}.cls-21{fill:#0e558a;}.cls-22{fill:#fff;}.cls-23{fill:#eca5b0;}.cls-24{fill:#223968;}.cls-25{fill:#de377c;}.cls-26{fill:#3e81c0;}.cls-27{fill:#a3cfee;}.cls-28{fill:#6da1d1;}.cls-29{fill:#2471af;}.cls-30{fill:#f5c4c5;}.cls-31{fill:#ef9525;}.cls-32{fill:#f5bdbb;}.cls-33{fill:#1e3e6f;}.cls-34{fill:#0d568a;}.cls-35{fill:#2372af;}.cls-36{fill:#eba6b0;}.cls-37{fill:#e4367a;}.cls-38{fill:#233967;}.cls-39{fill:#b7dbf3;}.cls-40{fill:#8bbfe6;}.cls-41{fill:#e97623;}.cls-42{fill:#f7cbce;}.cls-43{fill:#7cafd8;}.cls-44{fill:#d8e1f2;}.cls-45{fill:#9cc5e7;}.cls-46{fill:#bbdcf0;}.cls-47{fill:#1789fa;}.cls-48{fill:#eaf5fa;}.cls-49{fill:#0f60d9;}.cls-50{fill:#7cb4e0;}.cls-51{fill:#a8d2f0;}.cls-52{fill:#cbe0f4;}.cls-53{fill:#4b9bd2;}.cls-54,.cls-67{mix-blend-mode:multiply;}.cls-55{fill:#c9c5c4;}.cls-56{fill:#7cb5e1;}.cls-57{fill:#1d81c1;}.cls-58{fill:#8dc3e9;}.cls-59{fill:#cce1f5;}.cls-60{fill:#abd4ef;}.cls-61{fill:#b01d55;}.cls-62{fill:#dd367b;}.cls-63{fill:#5a92ca;}.cls-64{fill:#3698ce;}.cls-65{fill:#2682bc;}.cls-66{fill:#0f5990;}.cls-68{fill:#7db3df;}.cls-69{fill:#c0dbed;}.cls-70{fill:#f16021;}.cls-71{fill:#71bae6;}.cls-72{fill:#0d5589;}.cls-73{fill:#6ea2d2;}.cls-74{fill:#f3ada0;}.cls-75{fill:#f5bebc;}.cls-76{fill:#1f406e;}.cls-77{fill:#ea8a6d;}.cls-78{fill:#2476b1;}.cls-79{fill:#2476b0;}.cls-80{fill:#0d5d8d;}.cls-81{fill:#93caea;}.cls-82{fill:#659ece;}.cls-83{fill:#2776b2;}.cls-84{fill:#cbe1f4;}.cls-85{fill:#2471ae;}.cls-86{fill:#f7cbd0;}.cls-87{fill:#e8a2ac;}.cls-88{fill:#1f3c6a;}.cls-89{fill:#2571ac;}.cls-90{fill:#0b5688;}.cls-91{fill:#0f5588;}.cls-92{fill:#f09624;}.cls-93{fill:#e97521;}.cls-94{fill:#b2d5ef;}.cls-95{fill:#90bde4;}.cls-96{fill:#f8cb99;}.cls-97{fill:#ea7397;}.cls-98{fill:#4e95c2;}.cls-99{fill:#57a6da;}.cls-100{fill:#174477;}.cls-101{fill:#de3a7d;}.cls-102{fill:#f6c7c6;}.cls-103{fill:#145687;}.cls-104{fill:#dd7d95;}.cls-105{fill:#e7b4b3;}.cls-106{fill:#eda9b2;}</style><linearGradient id="linear-gradient" x1="1931.23" y1="322.6" x2="2111.36" y2="322.6" gradientUnits="userSpaceOnUse"><stop offset="0.06" stop-color="#e0f0fb"/><stop offset="0.9" stop-color="#fff"/></linearGradient><linearGradient id="linear-gradient-2" x1="1958.88" y1="199.1" x2="2096.84" y2="199.1" xlink:href="#linear-gradient"/><linearGradient id="linear-gradient-3" x1="1771.22" y1="204.21" x2="1872.43" y2="204.21" xlink:href="#linear-gradient"/><linearGradient id="linear-gradient-4" x1="1869.6" y1="219.68" x2="1901.93" y2="219.68" xlink:href="#linear-gradient"/><linearGradient id="linear-gradient-5" x1="1874.65" y1="207.19" x2="1931.23" y2="207.19" xlink:href="#linear-gradient"/></defs><title>Asset 2</title><g class="cls-1"><g id="Layer_2" data-name="Layer 2"><g id="Layer_2-2" data-name="Layer 2" class="cls-2"><rect class="cls-3" x="13.78" y="49.61" width="1032.2" height="511.55"/><path class="cls-4" d="M18.33,1625.56q1177.46,0,1072.09-1576.08H549.79C605.29,676.39,534.25,1081.15,0,1121.59Z"/><path class="cls-5" d="M2298.76,1633.67q-1177.47,0-1072.1-1592.21h540.62c-55.49,633.36,15.54,1042.22,549.8,1083.09Z"/></g><g id="Layer_1-2" data-name="Layer 1"><ellipse class="cls-6" cx="2021.67" cy="1503.31" rx="216.14" ry="79.97"/><ellipse class="cls-6" cx="275.24" cy="1520.6" rx="216.14" ry="79.97"/><path class="cls-7" d="M2015.84,471.27c-3.39-6,17.4-19.39,12.52-34.3-2.63-8-11.16-11.85-10.35-20.68.53-5.77,4.54-8.22,3.27-10.34-1.91-3.19-12.12.38-28.85,4.35-29.35,7-35.75,5-38.65,3.81A30.91,30.91,0,0,1,1940.93,404a196.77,196.77,0,0,1-154.83-119.6h0c-14.68,6.35-15.81,20.75-25,20,0,0-1-.08-13.07-6.53-1.48-13.29-3.39-16.2-4.9-16.33-4.19-.36-12.55,20.29-5.71,28.58,2.36,2.86,5.65,3.17,6.53,6.53,1.17,4.43-3.88,6.45-4.08,11.43-.32,8.12,12.82,10,14.69,20.41,1.3,7.16-4.09,11-1.63,14.7,3,4.42,11.27-.23,21.23,1.63,12.81,2.4,15.38,13.15,35.92,34.29,7,7.25,13.76,14.16,23.68,21.23,23,16.43,37.09,15,40.83,25.31,4.05,11.2-5.71,25.52-14.7,32.66-13.47,10.7-29.67,8.71-34.09,8.17a48.18,48.18,0,0,1-7-1.4,196.67,196.67,0,0,0,209.35-10.91C2021.53,474.49,2017.08,473.46,2015.84,471.27Z"/><path class="cls-7" d="M1745.38,398.33c1.8-9.19,8-12,6.94-21.23-1.32-11.09-10.82-11.94-12.86-25.31-1-6.85.84-10.57-2.25-17.76-1.9-4.44-3.82-5.8-6.12-9.39-5.2-8.1-5.19-16.38-5.51-23.47-.35-8-1.27-17.9-2.7-30.11A196.73,196.73,0,0,0,1789,464.61c-5.22-5.36-10.9-11.72-17.51-19.13C1753.92,425.78,1742.56,412.69,1745.38,398.33Z"/><path class="cls-8" d="M1936.91,357.5c6.13-7.37,14.54-7,18-15.78,2-5.08-1.44-7.59.55-12,2.49-5.48,8.71-5.51,19.32-9.52,18.74-7.08,23-15.93,30.21-13.07,5.31,2.12,3.88,7.29,10.34,10.89,9.92,5.53,24.69-.3,24.77-3.54,0-1.7-4-2.44-3.81-4.08.24-2,6.62-1.66,13.88-4.63,3.56-1.45,11.64-4.75,13.61-11.7,1.57-5.57-1-12.71-4.63-13.61-3.94-1-7,6-10.61,4.9-3.2-.94-5.48-7.67-3.81-13.06a11.29,11.29,0,0,1,2.31-4.13q-3.29,1.08-6.63,2a6.82,6.82,0,0,1-.58,4.58c-1.89,3.63-5.51,3-6.26,6.26-1.11,4.76,6,9.33,4.62,11.43-.7,1.1-3.3.88-5.17.27-6.33-2.06-5.9-9.17-11.7-13.61-6.78-5.19-17-2.79-17.15-1.63-.22,1.49,15.78,3.1,16.88,9.52.15.88.14,2.56-.82,3.27-1.37,1-4-.45-5.71-1.36-6.87-3.62-12.26-6.47-16.88-6-3.54.37-5.9,2.7-10.61,7.35-2.9,2.86-5.94,5.94-6.81,10.61-.59,3.23.52,3.57,0,6.26-1.15,6-8.19,12.21-15.78,11.71a12.57,12.57,0,0,1-8.71-4.09c-2.89-3.38-3.88-8.75-1.91-12.51,3.44-6.57,13.71-4.1,15.79-9.8,1.44-3.95-3.09-6.21-1.91-12.25.67-3.42,2.39-4,4.87-8.46a139.86,139.86,0,0,1-70.6-40c-3.56,0-7,.65-9.7,3.29-4.79,4.67-2.34,10.78-7.14,13.07-4.2,2-10.79-.42-13.68-4.7-4.17-6.17-.14-15.54,2-20.61,3.66-8.5,7.42-10,6.54-14.09-1.28-6-10.62-7.18-10-12,.23-1.83,1.36-3.67,4.67-6.11-.77-1.8-1.52-3.63-2.22-5.47a36.62,36.62,0,0,0-11.72,3.41c-2.84,1.39-10.69,5.25-11.43,11.43-.59,4.82,3.73,6.18,4.08,11.43.67,10-13.9,21.47-19.6,18.78-.73-.34-1.3-.91-3.2-5.19-3.63-8.15-3.87-11.23-5.78-15.22-1-2-5.39-11.25-11.43-11.43-7.65-.22-12.67,14.32-13.06,15.51-2,6-3.45,16.22.81,18.78,3.11,1.87,6-2.29,12.25-2.45,11.42-.27,20.16,13,22.86,17.15,5.44,8.29,10.4,21.27,6.53,24.49-1.65,1.38-6.56-.15-16.33-3.26-10.13-3.24-13.15-4.93-15.51-3.27-3.26,2.3-.17,7.42-3.26,12.25-3.83,6-11.36,2.54-21.54,6.94A196.77,196.77,0,0,0,1940.93,404a46.24,46.24,0,0,1-4.56-7.34C1930.43,385.19,1928.45,367.67,1936.91,357.5Z"/><path class="cls-8" d="M1855,132.16c-30.46,22.61-37.9,31.52-35.92,35.92,2.13,4.75,14.88,4.1,15.51,9,.51,4-7.58,7.16-6.53,10.62.69,2.29,4.86,2.88,6.6,3.13,3.11.44,9.47.35,11.36-3.13,2-3.65-3.22-6.87-2.45-13.07a14.61,14.61,0,0,1,9.8-11.43c4.28-1.26,8.24.43,13.61,4.14a140.43,140.43,0,0,1-3.74-32.25c0-3.81.16-7.58.45-11.31l-.86.23C1861.93,126.06,1859.61,128.72,1855,132.16Z"/><path class="cls-9" d="M1867,167.32c2.25,1.56,4.74,3.46,7.62,5.66,5.48,4.19,9.74,7.45,9,9.8-.71,2.16-5,1.53-11.14,2.3.7,1.84,1.45,3.67,2.22,5.47l0,0c11.75-8.61,33.12-11.72,40.82-2.85,1.5,1.72,2.79,4.25,5.72,4.9,4.39,1,8.14-3.27,9.59-2.05,1,.88,0,3.72-1.22,6.74-3.52,9-5.6,13.69-6.74,16.74-3.83,10.24-.69,11.63-3.67,14.9-4.12,4.52-10.91,2.77-17.25,2.83a139.86,139.86,0,0,0,70.6,40c.19-.33.38-.68.58-1.07,3.21-6.22,1.87-8,3.81-11.43,4.9-8.71,16.95-3.6,24.22-12,5.53-6.37,5.56-17.4,1.09-23.95-3.2-4.68-9-7.57-10.62-6.26s2.71,6.14,2.45,14.15c0,.77-.51,11.72-7.07,14.7-5.68,2.57-13.76-1.8-17.69-7.08-8.64-11.59-1.76-33.61,11.43-41.64,5.32-3.24,13.75-5.48,17.14-2.17s.2,10.43,3.27,12c1.88.94,5.39-.56,6.53-3,1.85-3.95-3.84-7.56-5.17-15.52-1.15-6.91,2.44-8.39,2.18-14.15-.42-9-9.63-13.29-27.49-28.58-12.72-10.88-19.07-16.32-18.23-19.32.38-1.36,1.89-2.5,4.29-3.39a197.74,197.74,0,0,0-99.57.71c-.29,3.73-.45,7.5-.45,11.31A140.43,140.43,0,0,0,1867,167.32Z"/><path class="cls-9" d="M2057.75,258.17c-.09-3.54-5.19-7.38-10.07-7.08-4.24.26-7.72,3.6-9,7.08-1.68,4.62,1,8.33,1.67,12q3.35-.92,6.63-2C2051,263.55,2057.85,262.31,2057.75,258.17Z"/><path class="cls-10" d="M2108.62,346.39a195.94,195.94,0,0,1-140.84,59.47,198.16,198.16,0,0,1-26.85-1.83,30.91,30.91,0,0,0,12.85,10.08c2.9,1.17,9.3,3.17,38.65-3.81,16.73-4,26.94-7.54,28.85-4.35,1.27,2.12-2.74,4.57-3.27,10.34-.81,8.83,7.72,12.68,10.35,20.68,4.88,14.91-15.91,28.33-12.52,34.3,1.24,2.19,5.69,3.22,12.29,2.93A196.55,196.55,0,0,0,2108.62,346.39Z"/><path class="cls-10" d="M1972.53,271.75c-2.48,4.43-4.2,5-4.87,8.46-1.18,6,3.35,8.3,1.91,12.25-2.08,5.7-12.35,3.23-15.79,9.8-2,3.76-1,9.13,1.91,12.51a12.57,12.57,0,0,0,8.71,4.09c7.59.5,14.63-5.73,15.78-11.71.52-2.69-.59-3,0-6.26.87-4.67,3.91-7.75,6.81-10.61,4.71-4.65,7.07-7,10.61-7.35,4.62-.48,10,2.37,16.88,6,1.71.91,4.34,2.38,5.71,1.36,1-.71,1-2.39.82-3.27-1.1-6.42-17.1-8-16.88-9.52.18-1.16,10.37-3.56,17.15,1.63,5.8,4.44,5.37,11.55,11.7,13.61,1.87.61,4.47.83,5.17-.27,1.35-2.1-5.73-6.67-4.62-11.43.75-3.24,4.37-2.63,6.26-6.26a6.82,6.82,0,0,0,.58-4.58,141,141,0,0,1-67.84,1.56Z"/><path class="cls-11" d="M2096.84,239.34A139.8,139.8,0,0,1,2047,268.19a11.29,11.29,0,0,0-2.31,4.13c-1.67,5.39.61,12.12,3.81,13.06,3.64,1.08,6.67-5.88,10.61-4.9,3.61.9,6.2,8,4.63,13.61-2,7-10,10.25-13.61,11.7-7.26,3-13.64,2.59-13.88,4.63-.2,1.64,3.85,2.38,3.81,4.08-.08,3.24-14.85,9.07-24.77,3.54-6.46-3.6-5-8.77-10.34-10.89-7.2-2.86-11.47,6-30.21,13.07-10.61,4-16.83,4-19.32,9.52-2,4.39,1.44,6.9-.55,12-3.42,8.76-11.83,8.41-18,15.78-8.46,10.17-6.48,27.69-.54,39.19a46.24,46.24,0,0,0,4.56,7.34,198.16,198.16,0,0,0,26.85,1.83,195.94,195.94,0,0,0,140.84-59.47,197.28,197.28,0,0,0-11.78-107Z"/><path class="cls-12" d="M1959,126.44c-.84,3,5.51,8.44,18.23,19.32,17.86,15.29,27.07,19.54,27.49,28.58.26,5.76-3.33,7.24-2.18,14.15,1.33,8,7,11.57,5.17,15.52-1.14,2.43-4.65,3.93-6.53,3-3.07-1.54.1-8.71-3.27-12s-11.82-1.07-17.14,2.17c-13.19,8-20.07,30.05-11.43,41.64,3.93,5.28,12,9.65,17.69,7.08,6.56-3,7-13.93,7.07-14.7.26-8-4.1-12.79-2.45-14.15s7.42,1.58,10.62,6.26c4.47,6.55,4.44,17.58-1.09,23.95-7.27,8.37-19.32,3.26-24.22,12-1.94,3.45-.6,5.21-3.81,11.43-.2.39-.39.74-.58,1.07a141,141,0,0,0,67.84-1.56c-.69-3.69-3.35-7.4-1.67-12,1.26-3.48,4.74-6.82,9-7.08,4.88-.3,10,3.54,10.07,7.08.1,4.14-6.72,5.38-10.75,10a139.8,139.8,0,0,0,49.84-28.85,197,197,0,0,0-133.59-116.29C1960.85,123.94,1959.34,125.08,1959,126.44Z"/><path class="cls-10" d="M1818.78,485.11a197.7,197.7,0,0,1-29.76-20.5C1799.51,475.38,1808.16,482.12,1818.78,485.11Z"/><path class="cls-10" d="M1859.89,478.34c9-7.14,18.75-21.46,14.7-32.66-3.74-10.33-17.79-8.88-40.83-25.31-9.92-7.07-16.64-14-23.68-21.23-20.54-21.14-23.11-31.89-35.92-34.29-10-1.86-18.28,2.79-21.23-1.63-2.46-3.69,2.93-7.54,1.63-14.7-1.87-10.39-15-12.29-14.69-20.41.2-5,5.25-7,4.08-11.43-.88-3.36-4.17-3.67-6.53-6.53-6.84-8.29,1.52-28.94,5.71-28.58,1.51.13,3.42,3,4.9,16.33,12,6.45,13.07,6.53,13.07,6.53,9.18.75,10.31-13.65,25-20h0a196,196,0,0,1-14.88-75.12A198.19,198.19,0,0,1,1774,176.5a196.17,196.17,0,0,0-51.08,94.56c1.43,12.21,2.35,22.15,2.7,30.11.32,7.09.31,15.37,5.51,23.47,2.3,3.59,4.22,4.95,6.12,9.39,3.09,7.19,1.2,10.91,2.25,17.76,2,13.37,11.54,14.22,12.86,25.31,1.1,9.27-5.14,12-6.94,21.23-2.82,14.36,8.54,27.45,26.13,47.15,6.61,7.41,12.29,13.77,17.51,19.13a197.7,197.7,0,0,0,29.76,20.5,48.18,48.18,0,0,0,7,1.4C1830.22,487.05,1846.42,489,1859.89,478.34Z"/><path class="cls-13" d="M1807.64,277.49c3.09-4.83,0-9.95,3.26-12.25,2.36-1.66,5.38,0,15.51,3.27,9.77,3.11,14.68,4.64,16.33,3.26,3.87-3.22-1.09-16.2-6.53-24.49-2.7-4.11-11.44-17.42-22.86-17.15-6.28.16-9.14,4.32-12.25,2.45-4.26-2.56-2.81-12.79-.81-18.78.39-1.19,5.41-15.73,13.06-15.51,6,.18,10.48,9.45,11.43,11.43,1.91,4,2.15,7.07,5.78,15.22,1.9,4.28,2.47,4.85,3.2,5.19,5.7,2.69,20.27-8.77,19.6-18.78-.35-5.25-4.67-6.61-4.08-11.43.74-6.18,8.59-10,11.43-11.43a36.62,36.62,0,0,1,11.72-3.41,137.82,137.82,0,0,1-5.46-17.76c-5.37-3.71-9.33-5.4-13.61-4.14a14.61,14.61,0,0,0-9.8,11.43c-.77,6.2,4.43,9.42,2.45,13.07-1.89,3.48-8.25,3.57-11.36,3.13-1.74-.25-5.91-.84-6.6-3.13-1-3.46,7-6.64,6.53-10.62-.63-4.88-13.38-4.23-15.51-9-2-4.4,5.46-13.31,35.92-35.92,4.62-3.44,6.94-6.1,7.83-8.17A196.5,196.5,0,0,0,1774,176.5a198.19,198.19,0,0,0-2.74,32.81,196,196,0,0,0,14.88,75.12C1796.28,280,1803.81,283.46,1807.64,277.49Z"/><path class="cls-10" d="M1883.57,182.78c.76-2.35-3.5-5.61-9-9.8-2.88-2.2-5.37-4.1-7.62-5.66a137.82,137.82,0,0,0,5.46,17.76C1878.54,184.31,1882.86,184.94,1883.57,182.78Z"/><path class="cls-14" d="M1870,196.66c-.61,4.86,8.73,6.08,10,12,.88,4.12-2.88,5.59-6.54,14.09-2.18,5.07-6.21,14.44-2,20.61,2.89,4.28,9.48,6.69,13.68,4.7,4.8-2.29,2.35-8.4,7.14-13.07,2.71-2.64,6.14-3.25,9.7-3.29a140.27,140.27,0,0,1-27.28-41.19C1871.34,193,1870.21,194.83,1870,196.66Z"/><path class="cls-15" d="M1919.18,228.91c3-3.27-.16-4.66,3.67-14.9,1.14-3,3.22-7.73,6.74-16.74,1.18-3,2.26-5.86,1.22-6.74-1.45-1.22-5.2,3-9.59,2.05-2.93-.65-4.22-3.18-5.72-4.9-7.7-8.87-29.07-5.76-40.82,2.85l0,0a140.27,140.27,0,0,0,27.28,41.19C1908.27,231.68,1915.06,233.43,1919.18,228.91Z"/><path class="cls-16" d="M2174.36,1062.44s-5.34-4.77-5.15-18.14-2.1-60.71-2.1-60.71L2111,993.52s-.95.19-1.14,6.68-1.15,52.12-3.63,59.76,3.44,7.64,6.11,7.45S2174.36,1062.44,2174.36,1062.44Z"/><path class="cls-17" d="M2161.38,988.36c.38,5.92.38,17,.38,17s2.1-2.49,4-1.34-2.1,13.75-5,13.55-1.72.39-1.72.39-2.89,11.56-7.19,11.93c-2.77.24,1.27,15.75,1.27,15.75s8.78,13,19.09,11.84-16.8,11.07-26.35,11.07-39.71-8.59-39.71-8.59,11.27-4.2,14.32-6.11,5.35-8.4,5.35-10.5v-12s-6.11-5.73-6.69-7.83-1.52-5.92-1.52-5.92-4.59-1.9-5.16-8.59-.76-9.16,2.29-5.34c0,0,1.91-20.43,4-23.87s10.69-11.45,10.69-11.45,9.74-.58,12.22-.58,11.84,4.78,11.84,4.78l8.21,8.59Z"/><path class="cls-18" d="M2139.43,1056.08l-6.23-.69-14.25-2.63-.41,31.12,11.34,58.1s18.68-30.29,19.37-32,12.17-50.08,11.2-51.32-4.15-5.81-4.15-5.81Z"/><path class="cls-19" d="M2145.24,1067.29c-2.49-4.57-6.64-10.66-5.81-11.21s16-12,16-12l4.43,8.85Z"/><path class="cls-19" d="M2133.2,1055.39c-.55,1.52-4.56,12.17-5,11.9s-9.27-14.11-9.27-14.53,1.94-9.68,2.77-9.27S2133.2,1055.39,2133.2,1055.39Z"/><path class="cls-17" d="M2141.81,1406s3.81,23.91,3.12,44-3.12,33.61-4.85,40.54-4.16,10.75-3.47,18,2.08,21.49,4.51,22.53,15.59-.69,15.59-1.73-.34-26.34-1-29.81,14.21-47.47,14.56-61.33,5.54-37.78,5.54-37.78Z"/><path class="cls-17" d="M2133.84,1403.59c1.39,5.2,2.77,11.44,2.43,35.7s-4.86,31.18-2.43,38.46a46.09,46.09,0,0,1,2.43,13.17s-4.16,5.89-3.47,11.44,3.81,18.36-1,20.79-13.17,1.73-13.86.69,2.08-22.18,2.08-22.18l1-4.85s-2.43-10.74-2.43-12.13-12.82-79.7-12.82-79.7Z"/><path class="cls-16" d="M2156.47,1518.06c.13.4,4.74,12.19,4.74,14.36s1.35,11.24-4.2,12.06-16,.13-17.75-1.5-5.42-4.6-4.2-9.88,1.49-26,1.49-26,2.44,21.68,6.1,22.36,8.29-.76,11-1.22C2157.55,1527.54,2156.47,1518.06,2156.47,1518.06Z"/><path class="cls-16" d="M2117.72,1522.12c-.95,2.58-3.79,4.2-3.52,7.59s1,8.4,6.37,8.13,13.68-.95,13.68-.95,3-17.07,3-19.1,4.61-24.25,3.79-28.18-5.15-6.5-5.15-6.5a50.49,50.49,0,0,1-.54,5.82c-.4,2.17-2.3,3.39-2.44,6.77s.28,12.87.41,15.31,2.17,7.59-.27,9.49-3.39,3.25-8.4,3.25S2117.72,1522.12,2117.72,1522.12Z"/><path class="cls-20" d="M2191.71,1238.29c-1,18.37-4.85,76.59-6.93,92.53s-6.58,58.91-5.89,65.84.69,15.25.69,15.25-79,.69-79.35-.35,2.77-39.5,2.42-41.93-12.13-106.39-12.13-115.74,4.85-45.05,4.85-45.05l8-43.67,56.48-2.08Z"/><path class="cls-16" d="M2131.78,970c3.06,2.3,13.94,2.68,16.62,4.4s10.11,9.35,10.69,13.93,2.67,17,2.67,17,3.82-5,3.82-5.54,1.14-5.35,1.14-5.35.39-11.26-.19-13.55-4.2-11.65-11.07-14.7-16.23-6.3-20.24-5a12.17,12.17,0,0,0-6.11,5.16s-6.11-3.82-10.12,2.67-8.4,26.35-8.4,26.35l4.2,8.21s4.39-18.71,5.54-21.58S2131.78,970,2131.78,970Z"/><path class="cls-21" d="M2187.42,1059.54a81.2,81.2,0,0,1-16-3c-1-.14-13.7-10.1-13.7-10.1l-6.08,28.08s-22.16,56.1-21.72,67.5,1.4,43.6,2.36,55.4,0,37.63,16.26,44.65,51.34-6.7,51.34-6.7-15.62-74.94-15.62-75.9-.42-60.56.22-76.18S2187.42,1059.54,2187.42,1059.54Z"/><path class="cls-21" d="M2119.22,1046.51c.19,1.7,1.13,13.94,1.32,19.4s5.27,67.41,5.27,67.41,11.3,39.92.56,66.66-11.3,39.73-19.77,40.48-26.17-10.54-26.36-11.11,7.91-56.11,7.72-69.29,6.65-66.32,5.05-79.39a145.1,145.1,0,0,1-1.27-21.05s15.62,1,20.41-3.82A41.22,41.22,0,0,0,2119.22,1046.51Z"/><path class="cls-22" d="M2147.31,1017c-1.47.39-8.66.13-9.79.13s-8.05,0-8.66-.26c0,0,1.7,3.77,8.2,4.21A12.84,12.84,0,0,0,2147.31,1017Z"/><path class="cls-23" d="M2137.6,1011.49c1.06,0,4.7-.09,5.9-1.25s.12-3.68-.78-5.67c-.2-.43-.37-.8-.47-1.09a19.56,19.56,0,0,1-1.2-6.17.71.71,0,0,0-.78-.68.74.74,0,0,0-.68.78,21,21,0,0,0,1.28,6.58c.11.31.3.72.51,1.19.44,1,1.61,3.52,1.1,4s-3.34.84-5,.83h0a.73.73,0,0,0-.73.73.74.74,0,0,0,.73.74Z"/><path class="cls-24" d="M2147.35,997.58c0,1.68.9,3,2,3s2-1.36,2-3-.89-3-2-3S2147.35,995.9,2147.35,997.58Z"/><path class="cls-24" d="M2125.16,997.58c0,1.68.89,3,2,3s2-1.36,2-3-.9-3-2-3S2125.16,995.9,2125.16,997.58Z"/><path class="cls-24" d="M2132.68,992.66c.11,1.18-3.55-.68-6.46-.48s-5,1.23-5.38,1,2.31-2.95,4.9-3S2132.56,991.38,2132.68,992.66Z"/><path class="cls-24" d="M2142.4,992.5c-.36-.26,3.95-2.08,6.22-2.32s6.3,1.24,6.26,1.84-5.18-.16-6.42,0S2143.6,993.33,2142.4,992.5Z"/><path class="cls-16" d="M2159.09,1018c-.93,2.21-4.11,13.18-19,14.61l14.78,1,6.19-8.42Z"/><path class="cls-16" d="M2117.66,1017.57s3.8,12.61,12.22,14.52c0,0-6.83.48-7.63.16s-7.47-9.22-7.47-9.22Z"/><path class="cls-25" d="M2114.77,992.31a10.28,10.28,0,0,0,19,7.64,9.84,9.84,0,0,1,3.15-2.52,4.17,4.17,0,0,1,1.6-.41h.47a5,5,0,0,1,3.35,2.21,1,1,0,0,0,.5.42,10.28,10.28,0,0,0,19.65-4.23,10.33,10.33,0,0,0-10.29-10.29A10.3,10.3,0,0,0,2142,995.42c0,.21,0,.43,0,.64a5.69,5.69,0,0,0-2.78-1,6.68,6.68,0,0,0-4.38,1.34c0-.32.05-.64.05-1a10.32,10.32,0,0,0-10.28-10.29A10.32,10.32,0,0,0,2114.77,992.31Zm29.17,3.11a8.29,8.29,0,0,1,16.26-2.32,8.39,8.39,0,0,1,.33,2.32,8.3,8.3,0,0,1-16.59,0ZM2117,992a8.29,8.29,0,1,1,15.13,6.8l-.05.06a1,1,0,0,0-.23.5A8.29,8.29,0,0,1,2117,992Z"/><path class="cls-17" d="M2198,1180.71l-15.75-.39-14.57,3.15s-26-3.54-27.58-4.72-2.75-4.36-2.75-4.36l55.14-.37Z"/><path class="cls-17" d="M2021.57,1135.36c-3.62.16-12,.82-12.5.33a59.59,59.59,0,0,0-9.34-5.32c-1.53-.62-4.46-3.09-11.72-.74-.65.2,7.73,1.61,6.42,2.27s-14,2.47-13.9,3c.79,5.41,14.06,10.7,16,11.52s10.52,1.81,10.85,1.31a8,8,0,0,1,3.46-2c.82,0,17.27,2.63,17.27,2s-3.12-14.47-3.12-14.47Z"/><path class="cls-26" d="M2091.85,1060.73c-1.1.66-15.32,28.66-19.16,42.1-2.4,8.39-12.31,19.85-19.2,24.19-4.27,2.7-30.12.38-28.8,1.92s-7.65,25.3-.39,22.66,41.36-3.95,43.78-4.83,2.2,2,3.75-1.54,3.08,2.64,7.26-6.6,14.58-23.33,14.58-23.33l-.94-55.89Z"/><path class="cls-26" d="M2187,1059.3c5.71,3.89,50.75,70.6,47,91.92-2,11.57-27.76,33.93-46.85,33-5.8-.27,1-14.62,1-14.62s22.3-16.88,18.78-29.83c-2.86-10.49-28.53-35.2-27.66-37.71C2181.2,1096.46,2187,1059.3,2187,1059.3Z"/><path class="cls-27" d="M2171.56,1118.6l18.36,21.1s-9.5,6.61-10,6.29-18.21-21.75-17.56-22.23S2171.56,1118.6,2171.56,1118.6Z"/><polygon class="cls-28" points="2125.59 1151.04 2066.9 1151.95 2115.97 1171.84 2124.84 1168.66 2125.59 1151.04"/><path class="cls-29" d="M2122,1169.62l90.9-.16a4,4,0,0,0,4-4l8.53-64.67a4.05,4.05,0,0,0-4.05-4l-90.89.15a4,4,0,0,0-4,4l-8.53,64.68A4,4,0,0,0,2122,1169.62Z"/><path class="cls-28" d="M2128.42,1169.61l90.9-.16a4,4,0,0,0,4-4l8.52-64.67a4,4,0,0,0-4-4l-90.89.15a4,4,0,0,0-4,4l-8.52,64.67A4,4,0,0,0,2128.42,1169.61Z"/><path class="cls-29" d="M2222.64,1174.94l-104.12-.55-51.68-16.13a2.06,2.06,0,0,1-2-2V1154a2.06,2.06,0,0,1,2-2l52.44,16.14,103.36.54a2,2,0,0,1,2,2v2.23A2.06,2.06,0,0,1,2222.64,1174.94Z"/><path class="cls-30" d="M340.61,1134.62c7,1.44,23,5.3,24.08,4.56s7.49-2.43,13.95-3.79c3.07-.65,20.19-4.92,20.75-.58.16,1.24-15.48,4.7-13.08,6.31s45.14,3.11,35.56,10.9c-7.71,6.26-17.63,7.9-21.62,8.76s-28.56.55-29.09-.44-11.52-6.8-13.11-7.06-33,2.8-32.82,1.61,9.17-25.24,9.17-25.24Z"/><path class="cls-31" d="M265,1017.13s12.67,16.12,12.69,16.19c4.17,15.1,3.86,28.18,8.3,42.23,4.49,14.23,10.26,24.71,14.11,26.21a29,29,0,0,1,5.46,2.62s-2.25,6.74,4.81,10.86,60,9.1,58,11.72,4.42,44.06-6.17,39.56-71.12-6-74.65-7.47-3.21,3.37-5.46-2.62a27.89,27.89,0,0,0-5.13-9s.64,13.48-5.45-2.24-23.37-36.46-24.49-49.57c-6.28-73.27,13.1-76.92,17.94-78.5Z"/><path class="cls-32" d="M263.1,1501.12l.68,17.77,21.42,2.33s5.85,1,5.45-.65-4.38-25.28-6.53-25.46S263.1,1501.12,263.1,1501.12Z"/><path class="cls-32" d="M148.83,1499.05c4.47-1.12-4.19,16-1.49,18s6.42,5.22,10.44,5a91.53,91.53,0,0,1,10.27.26l4.62,6.24-2.08-30S145.33,1499.93,148.83,1499.05Z"/><path class="cls-33" d="M276.67,1513.32c1.81-6.39,9.17.21,14,7.25s20,25.47,25.62,29.8,1.63,12.87-3.73,12.43-34.15-5-36.65-7.47-19.75-9.39-19.92-13.83,3.52-23,7.81-22.61S275.14,1518.73,276.67,1513.32Z"/><path class="cls-33" d="M154.53,1513c6.8-1.39,10.87,6.76,13.52,9.32s8.18-2.25,8-.5,6.81,28.09-2.09,32-18.8,13.08-27.31,12.37-26.77-1-26.63-2.79-1.53-15.94,4-20.75,14.55-17,17.82-22S150.46,1513.83,154.53,1513Z"/><path class="cls-34" d="M221.57,1174c.35,8.89-16.58,69.92-9,82.17s23.91,94.93,24.32,116,14.92,124.56,18.87,135.65c1,2.79,35.31-.65,37.77-4.32s-1.74-127.35-5.29-143.14-19.94-154.46-19.94-154.46Z"/><path class="cls-35" d="M149.15,1194.62c-1.25,15.12-8.57,124-7.5,131.73s1,34.27-.06,40.62-1.13,39.61-1.64,66.5.18,57.64,5.73,71.13c1.67,4.08,38.33,4.37,40.84,1.65s3-93.29,3.31-103.81,3.84-62.44,6.09-75.72,17-66.86,18.76-67.88,11.4-10.62,11.4-10.62,3.75-62.55,1.68-64.14C226.39,1183,149.15,1194.62,149.15,1194.62Z"/><path class="cls-36" d="M219.76,974.1l3,31.76-7.68,7.78c-3,12.24-51.1,26.59-40.42-18.14.12-.51,1.8-11.63,1.8-12.55s-.41-28.32-.41-28.32l22.18,18.61Z"/><path class="cls-32" d="M226.64,939.86s4-4.19,4.53-1.34-1.85,19.47-4.53,20.14c0,0-3.49,12.24-6.88,15.44-4.45,4.19-13.35,9.16-21.07,8.49s-19.16-11.25-20.34-15.45-3.4-10.5-3.4-10.5-5-.17-6-2.18-2-18.12-.17-18.29a9.42,9.42,0,0,1,4,.84s1-27,1.51-27.69,15.94-9.23,15.94-9.23l20.14.17s.67,3.19,1.51,3.52S225,910.83,225,910.83Z"/><path class="cls-20" d="M210,907.14c-3.18.41-9.74,3.19-10.24,2.68a12.68,12.68,0,0,0-11.58-2.18c-6.54,1.85-11.41,12.42-11.75,14.43S172.77,937,172.77,937s-4-1.34-4.19.33-.79,5.36-.79,5.36.28-21,0-25.16,5-26.68,31.55-25.34,30.54,23.33,30.54,23.33l.5,21.31s-2.85,4.36-3.35,4.2-.68-17.79-3.19-23S216.57,906.3,210,907.14Z"/><path class="cls-37" d="M195.69,929.75c-1.12,2.89-5.15-.1-8.3.48s-9.73,5-9.06,2.28,3.82-6.77,7.82-6.67S196.84,926.79,195.69,929.75Z"/><path class="cls-22" d="M212.1,959.41c-3.82.58-9.73.29-11.35.29S189.3,959,189.3,959s2.48,6,10.49,6.11A15.81,15.81,0,0,0,212.1,959.41Z"/><path class="cls-20" d="M205.55,930c1.38,2.79,5.12-.56,8.31-.27s10.15,4.16,9.23,1.46-4.41-6.4-8.39-5.94S204.14,927.11,205.55,930Z"/><path class="cls-20" d="M216.21,937.19a2.8,2.8,0,0,1-3.05,2.74c-1.75,0-3.29-1.12-3.29-2.74a3.18,3.18,0,0,1,6.34,0Z"/><path class="cls-38" d="M198.75,952.46h.13a22.41,22.41,0,0,0,6.54-2c1.74-1,1-3.68-.07-7.33a34.6,34.6,0,0,1-1.68-8.27.83.83,0,1,0-1.66.05,36.42,36.42,0,0,0,1.74,8.68c.62,2.13,1.46,5.06.82,5.44a21,21,0,0,1-5.95,1.83.83.83,0,0,0,.13,1.65Z"/><path class="cls-38" d="M192.11,937.43a3,3,0,0,1-3.26,2.8,2.88,2.88,0,0,1-3.08-2.8,3.18,3.18,0,0,1,6.34,0Z"/><path class="cls-20" d="M178.45,912.9s20.69,8.21,28.65,5.16,26.67-18.39,25.61-18S211.45,876.4,193,884.62c-9.22,4.12-15.33,13.69-15.85,16.91a7.25,7.25,0,0,0,1.28,5.4s.66-2.39,1.25-5.29c.91-4.56,1-8.24-1.38-8.24-1.46,0,.79,6.37.79,6.37s-3.45-6.1-4.64-5.7-2.12,8.49,3.32,8.49c0,0-5-3.85-5.71-2.79s2.92,3.45,2.92,3.45Z"/><path class="cls-39" d="M179.73,992s-3.22,27.31-2.85,28.44,20.48,31.48,22.19,36.22,32.42,50.82,32.42,50.82l7.4-66.18s-.38-20.48-.95-22.94-15.55-25.6-15.55-25.6-8.7,6.81-10.89,6-20.39-5.2-21-5.2S179.73,992,179.73,992Z"/><path class="cls-40" d="M224.17,1013.53c-.86-.86-8.59-14.18-12.67-14.83s-6-1-6-1-11.27,13.32-11.7,15.14-17.94-20.4-18.69-21.48-3.12-6-2.69-7.62,2.58-5.38,3-5.16,27.6,16.11,29.75,16.86,4.83,2.69,7.3,1.08,10.75-11.17,10.75-10.85,2.25,6,2,7.52S224.17,1013.53,224.17,1013.53Z"/><path class="cls-34" d="M216.44,1009.66c.11-.32.64-6.12.64-6.12L212,997.31s-6-.86-6.87-.43-5.91,8.27-5.91,8.27l5.91,5.37-.78,40.24,27.11,56.7,4.18-26.55S222.58,1031,222,1030.28s-5.31-12.89-5.5-14S216.44,1009.66,216.44,1009.66Z"/><path class="cls-41" d="M234.24,1003.55s33.85,14.22,34.7,16.78,4.55,31,2,47.21-9.67,71.11-9.38,74.24,17.63,65.7,20.48,84.19,2.27,40.39,2.27,40.39-22.95,8.22-33.48-2.87-20.46-47.06-20.46-47.06-5.5-54.74-6.07-62.14,11.09-62.86,11.09-63.71,9.67-53.47,8.82-55.46S234.24,1003.55,234.24,1003.55Z"/><path class="cls-20" d="M160.58,993.31c-4,1.71-25.6,10-25.32,11.09s10.81,17.92,11.1,46.36-5.69,82.77-5.69,82.77-8.53,137.38-1.42,139.37,83.83,3.17,82.93-13c-.89-15.76,14.59-52.78,20.6-71.2s-1.81-65.89-1.81-65.89l-17.53-30.25Z"/><path class="cls-31" d="M234,1123.57a4.27,4.27,0,1,0-4.27,4.27A4.27,4.27,0,0,0,234,1123.57Z"/><path class="cls-31" d="M235.67,1165.39a4.27,4.27,0,1,0-4.27,4.26A4.27,4.27,0,0,0,235.67,1165.39Z"/><path class="cls-31" d="M148.06,1187.85c11.66-.28,49.49-6,49.49-6s4.84,19.06,4,19.91-46.36.57-46.36.57Z"/><path class="cls-31" d="M170.63,982.12s-11.95,10.62-12.14,12.14,4,19.34,4,19.34l8.35-1-.76,8s71.29,102.78,70.91,102.21-15.92-46.46-23.89-57.84-21.8-43.42-32.23-59.35S170.63,982.12,170.63,982.12Z"/><path class="cls-31" d="M242.21,1007c-6-4.27-17.14-16.09-17-13.73s5,15.72,6.43,23.4,0,88.17,0,88.17,15.93-17.35,16.78-43a381.65,381.65,0,0,0-.85-43.8l-6.83-2.84,3.7-3.13Z"/><path class="cls-31" d="M135.5,1003.4c0,.06,13.27,16.89,13.29,17,4.37,15.81,4,29.51,8.68,44.22,4.71,14.9,10.76,25.87,14.79,27.44a29.74,29.74,0,0,1,5.71,2.75s-2.35,7,5,11.37,62.78,9.52,60.77,12.27,4.63,46.13-6.46,41.42-74.47-6.25-78.17-7.82-3.36,3.53-5.71-2.75a29.31,29.31,0,0,0-5.37-9.41s.67,14.12-5.72-2.35-24.46-38.17-25.64-51.9c-6.57-76.72,13.72-80.55,18.79-82.2Z"/><polygon class="cls-42" points="288.91 1127.57 269.41 1126.3 243.16 1126.86 243.6 1142.32 254.28 1151.21 256.06 1162.78 270.3 1160.11 282.76 1159.22 288.99 1144.1 294.32 1136.98 288.91 1127.57"/><path class="cls-43" d="M227.44,1182.88s40.72-41.48,59.16-50.7S325.78,1113,325.78,1113l61.46,21.51s-52.24,28.43-61.46,36.11-31.5,30.73-31.5,30.73Z"/><path class="cls-44" d="M226.68,1172.13s53,21.51,56.85,17.67,52.24-39.18,61.46-41.49,35.34-3.07,35.34-3.07l-67.61-33.8s-49.93,22.28-63.76,29.19S226.68,1172.13,226.68,1172.13Z"/><path class="cls-45" d="M309.91,1120.23c-1.52.38,33.83,21.67,35.35,19S309.91,1120.23,309.91,1120.23Z"/><path class="cls-45" d="M289.76,1127.83c-1.14.38,30.79,21.67,33.08,19.39S289.76,1127.83,289.76,1127.83Z"/><path class="cls-45" d="M284.44,1171.17c-2.51-1.44-10.26.38-9.88,3.8s9.12,9.88,12.16,6.08S287.1,1172.69,284.44,1171.17Z"/><path class="cls-45" d="M273,1138.47c.64,1.58,35.35,22.81,36.11,19.77S270.37,1132,273,1138.47Z"/><path class="cls-42" d="M266.47,1125.44l21.39,2.43a2.5,2.5,0,0,1-.77,3.33c-1.92,1.28-3.72,3.33-5.89,3s-24.46-1-24.46-1Z"/><path class="cls-35" d="M180.79,937.64a9,9,0,0,0-.4,2.77,9.15,9.15,0,0,0,17.41,3.83,8.71,8.71,0,0,1,2.77-2.28,4,4,0,0,1,1.41-.38h.43a4.46,4.46,0,0,1,3,1.93.84.84,0,0,0,.44.37,9.15,9.15,0,1,0-.85-3.76c0,.19,0,.38,0,.57a5.13,5.13,0,0,0-2.49-.87,5.87,5.87,0,0,0-3.87,1.23c0-.28,0-.57,0-.85a9,9,0,0,0-1.3-4.58,9.14,9.14,0,0,0-16.6,2Zm26,2.46a7.38,7.38,0,1,1,7.47,7.29A7.37,7.37,0,0,1,206.76,940.1Zm-24-2.73a7.38,7.38,0,0,1,14.15,2.85,7.24,7.24,0,0,1-.63,3l0,.05a.87.87,0,0,0-.2.45,7.38,7.38,0,0,1-13.28-6.4Z"/><path class="cls-46" d="M534.43,1105.77V383.41c0-39.57,29.81-71.76,66.45-71.76H1736.71c36.64,0,66.45,32.19,66.45,71.76v722.36Z"/><path class="cls-47" d="M1736.71,319.64c32.56,0,59,28.61,59,63.77v714.37H541.83V383.41c0-35.16,26.49-63.77,59-63.77Zm0-16H600.88c-40.79,0-73.85,35.7-73.85,79.75v730.35H1810.56V383.41c0-44.05-33.06-79.75-73.85-79.75Z"/><rect class="cls-22" x="592.96" y="374.86" width="1151.66" height="667.7"/><rect class="cls-48" x="615.72" y="402.38" width="190.5" height="32.15"/><rect class="cls-48" x="1071.32" y="402.38" width="123.04" height="20.39"/><rect class="cls-48" x="1232.06" y="402.38" width="123.04" height="20.39"/><rect class="cls-48" x="1392.8" y="402.38" width="123.04" height="20.39"/><rect class="cls-48" x="1553.53" y="402.38" width="123.04" height="20.39"/><path class="cls-49" d="M2012.81,1588.57v-31h-4.63v3l-190.09-422.48a7.46,7.46,0,0,0-6.82-4.39l-1287.6,2.12a7.48,7.48,0,0,0-6.92,4.7L350.11,1558h-5.28v31.46h0a7.47,7.47,0,0,0,7.45,7.31l1653.09-.16A7.46,7.46,0,0,0,2012.81,1588.57Z"/><path class="cls-50" d="M2005.38,1565.13l-1653.09.15a7.46,7.46,0,0,1-6.93-10.22l171.39-429.42c1.13-2.83,3.21-10.26,6.92-14l1287.6-2.13c.8,3.71,5.61,11,6.82,13.68l194.1,431.39A7.46,7.46,0,0,1,2005.38,1565.13Z"/><polygon class="cls-51" points="1763.48 1383.63 585.09 1384.46 661.24 1155 1676.33 1153.23 1763.48 1383.63"/><path class="cls-52" d="M730.65,1367.93l-79.75.06a3.4,3.4,0,0,1-3-4.51l9.36-31.43a3.15,3.15,0,0,1,3-2.36l78.09-.07a3.37,3.37,0,0,1,3,4.33l-7.69,31.44A3.19,3.19,0,0,1,730.65,1367.93Z"/><path class="cls-52" d="M851.47,1367.84l-79.87.06a3.38,3.38,0,0,1-3-4.26l7-31.45a3.19,3.19,0,0,1,3-2.61l78.21-.07a3.35,3.35,0,0,1,3.07,4.07L854.53,1365A3.22,3.22,0,0,1,851.47,1367.84Z"/><path class="cls-52" d="M1367.15,1329l-33.77,0-84.42.08-33.77,0-84.43.08-33.77,0-84.42.08-115.55.11a3.22,3.22,0,0,0-3.07,2.88l-4.72,31.46a3.34,3.34,0,0,0,3.08,4l117.34-.09,86.44-.06,34.58,0,86.44-.07,34.58,0,86.44-.07,34.58,0,82.57-.06a3.37,3.37,0,0,0,3-4.17l-6.22-31.54a3.22,3.22,0,0,0-3.06-2.7Z"/><path class="cls-52" d="M1576,1367.28l-79.8.06a3.19,3.19,0,0,1-3-2.63l-6.89-31.55a3.37,3.37,0,0,1,3-4.24l78.14-.07a3.16,3.16,0,0,1,3,2.45l8.55,31.56A3.39,3.39,0,0,1,1576,1367.28Z"/><path class="cls-52" d="M1696.68,1367.19l-79.65.06a3.18,3.18,0,0,1-3-2.39l-9.21-31.56a3.4,3.4,0,0,1,3-4.49l78-.07a3.14,3.14,0,0,1,2.92,2.22l10.87,31.57A3.41,3.41,0,0,1,1696.68,1367.19Z"/><path class="cls-52" d="M800.28,1275.92h-12.1l-112,.13a3.16,3.16,0,0,0-3,2.37l-9.36,31.43a3.39,3.39,0,0,0,3,4.5l112.75-.11H792l68.63-.07a3.23,3.23,0,0,0,3.07-2.8l5.37-31.46a3.35,3.35,0,0,0-3.07-4.07Z"/><path class="cls-52" d="M977.49,1314.06l-77.13.07a3.35,3.35,0,0,1-3.09-4l4.72-31.47a3.23,3.23,0,0,1,3.08-2.87l75.47-.09a3.33,3.33,0,0,1,3.11,3.8L980.59,1311A3.26,3.26,0,0,1,977.49,1314.06Z"/><path class="cls-52" d="M1094.31,1313.94l-77.18.08a3.33,3.33,0,0,1-3.11-3.73l2.4-31.48a3.26,3.26,0,0,1,3.1-3.15l75.53-.08a3.3,3.3,0,0,1,3.12,3.52l-.74,31.49A3.28,3.28,0,0,1,1094.31,1313.94Z"/><path class="cls-52" d="M1211.12,1313.82l-77.19.08a3.28,3.28,0,0,1-3.12-3.45l.07-31.49a3.3,3.3,0,0,1,3.12-3.43l75.53-.09a3.27,3.27,0,0,1,3.12,3.25l1.58,31.51A3.3,3.3,0,0,1,1211.12,1313.82Z"/><path class="cls-52" d="M1327.9,1313.71l-77.15.08a3.25,3.25,0,0,1-3.11-3.17l-2.25-31.52a3.32,3.32,0,0,1,3.11-3.7l75.5-.09a3.24,3.24,0,0,1,3.09,3l3.9,31.53A3.34,3.34,0,0,1,1327.9,1313.71Z"/><path class="cls-52" d="M1444.67,1313.59l-77.08.08a3.24,3.24,0,0,1-3.09-2.9l-4.56-31.53a3.34,3.34,0,0,1,3.07-4l75.43-.09a3.2,3.2,0,0,1,3,2.71l6.23,31.54A3.36,3.36,0,0,1,1444.67,1313.59Z"/><path class="cls-52" d="M1555.19,1275l-12.44,0-65.2.07a3.37,3.37,0,0,0-3,4.24l6.89,31.55a3.18,3.18,0,0,0,3,2.63l68.4-.06,12.75,0,112.55-.11a3.4,3.4,0,0,0,2.91-4.65l-10.87-31.58a3.15,3.15,0,0,0-2.92-2.22Z"/><path class="cls-52" d="M781.18,1222.31l-45.64.06-43.37.07a3.15,3.15,0,0,0-3,2.36l-9.36,31.43a3.4,3.4,0,0,0,3,4.51l42.49,0,46.81-.06,44.31-.06a3.19,3.19,0,0,0,3-2.67l6.48-31.45a3.38,3.38,0,0,0-3.05-4.2Z"/><path class="cls-52" d="M926.26,1260.44l-74.26.09a3.36,3.36,0,0,1-3.06-4.13l5.87-31.45a3.22,3.22,0,0,1,3.06-2.75l72.6-.1a3.35,3.35,0,0,1,3.1,3.94l-4.22,31.46A3.24,3.24,0,0,1,926.26,1260.44Z"/><path class="cls-52" d="M1039.14,1260.3l-74.33.09a3.34,3.34,0,0,1-3.1-3.86l3.55-31.47a3.24,3.24,0,0,1,3.1-3l72.67-.11a3.32,3.32,0,0,1,3.12,3.67l-1.9,31.48A3.26,3.26,0,0,1,1039.14,1260.3Z"/><path class="cls-52" d="M1152,1260.16l-74.36.09a3.3,3.3,0,0,1-3.12-3.58l1.23-31.49a3.27,3.27,0,0,1,3.11-3.29l72.71-.1a3.28,3.28,0,0,1,3.12,3.39l.43,31.49A3.3,3.3,0,0,1,1152,1260.16Z"/><path class="cls-52" d="M1264.84,1260l-74.35.09a3.27,3.27,0,0,1-3.13-3.3l-1.08-31.51a3.3,3.3,0,0,1,3.11-3.56l72.7-.11a3.26,3.26,0,0,1,3.11,3.11l2.74,31.52A3.32,3.32,0,0,1,1264.84,1260Z"/><path class="cls-52" d="M1377.66,1259.88l-74.3.1a3.24,3.24,0,0,1-3.1-3l-3.41-31.52a3.33,3.33,0,0,1,3.09-3.84l72.64-.1a3.22,3.22,0,0,1,3.08,2.84l5.06,31.53A3.35,3.35,0,0,1,1377.66,1259.88Z"/><path class="cls-52" d="M1490.45,1259.75l-74.2.09a3.21,3.21,0,0,1-3.06-2.77l-5.73-31.53a3.37,3.37,0,0,1,3-4.12l72.55-.1a3.21,3.21,0,0,1,3,2.58l7.38,31.55A3.39,3.39,0,0,1,1490.45,1259.75Z"/><path class="cls-52" d="M1605.62,1221.15l-45.28.06-41.17.06a3.39,3.39,0,0,0-3,4.36l8,31.56a3.18,3.18,0,0,0,3,2.51l44.07,0,46.44-.06,41.92,0c2.18,0,3.69-2.41,2.91-4.66l-10.87-31.57a3.14,3.14,0,0,0-2.92-2.22Z"/><path class="cls-52" d="M770,1207l-71.26.1a3.4,3.4,0,0,1-3-4.51l9.35-31.42a3.17,3.17,0,0,1,3-2.37l69.6-.12a3.39,3.39,0,0,1,3,4.34l-7.7,31.43A3.2,3.2,0,0,1,770,1207Z"/><path class="cls-52" d="M879,1206.84l-71.39.11a3.37,3.37,0,0,1-3-4.26l7-31.44a3.2,3.2,0,0,1,3-2.62l69.73-.12a3.36,3.36,0,0,1,3.07,4.08L882.06,1204A3.22,3.22,0,0,1,879,1206.84Z"/><path class="cls-52" d="M987.92,1206.68l-71.48.11a3.35,3.35,0,0,1-3.08-4l4.72-31.46a3.23,3.23,0,0,1,3.07-2.88l69.82-.11a3.32,3.32,0,0,1,3.11,3.8L991,1203.61A3.24,3.24,0,0,1,987.92,1206.68Z"/><path class="cls-52" d="M1096.83,1206.52l-71.52.11a3.33,3.33,0,0,1-3.12-3.73l2.4-31.47a3.26,3.26,0,0,1,3.1-3.16l69.87-.11a3.3,3.3,0,0,1,3.13,3.52l-.74,31.49A3.29,3.29,0,0,1,1096.83,1206.52Z"/><path class="cls-52" d="M1205.72,1206.36l-71.53.11a3.3,3.3,0,0,1-3.13-3.45l.08-31.5a3.28,3.28,0,0,1,3.11-3.42l69.88-.12a3.27,3.27,0,0,1,3.12,3.25l1.58,31.5A3.31,3.31,0,0,1,1205.72,1206.36Z"/><path class="cls-52" d="M1314.59,1206.2l-71.5.1a3.24,3.24,0,0,1-3.11-3.16l-2.25-31.52a3.32,3.32,0,0,1,3.11-3.7l69.84-.12a3.24,3.24,0,0,1,3.1,3l3.9,31.53A3.34,3.34,0,0,1,1314.59,1206.2Z"/><path class="cls-52" d="M1423.44,1206l-71.43.1a3.21,3.21,0,0,1-3.08-2.89l-4.57-31.53a3.35,3.35,0,0,1,3.08-4l69.77-.12a3.21,3.21,0,0,1,3,2.71l6.23,31.54A3.38,3.38,0,0,1,1423.44,1206Z"/><path class="cls-52" d="M1532.27,1205.88l-71.31.1a3.2,3.2,0,0,1-3-2.63L1451,1171.8a3.37,3.37,0,0,1,3-4.24l69.66-.12a3.17,3.17,0,0,1,3,2.46l8.55,31.56A3.39,3.39,0,0,1,1532.27,1205.88Z"/><path class="cls-52" d="M1641.09,1205.72l-71.17.1a3.17,3.17,0,0,1-3-2.39l-9.21-31.56a3.4,3.4,0,0,1,3-4.49l69.51-.11a3.13,3.13,0,0,1,2.92,2.21l10.87,31.58A3.41,3.41,0,0,1,1641.09,1205.72Z"/><path class="cls-53" d="M1444.74,1535.41l-539.76.08c-24.48,0-43.2-7.52-41.8-16.81l13.62-90.51c1.39-9.29,21-16.83,43.78-16.84l502.26-.29c22.78,0,42.77,7.53,44.64,16.83l18.21,90.68C1487.56,1527.86,1469.23,1535.41,1444.74,1535.41Z"/><g class="cls-54"><rect class="cls-55" x="983.5" y="1554.11" width="356.97" height="11.17" rx="1.05"/></g><path class="cls-50" d="M730.65,1363.63l-79.75.06a3.39,3.39,0,0,1-3-4.5l9.36-31.43a3.16,3.16,0,0,1,3-2.37l78.09-.07a3.38,3.38,0,0,1,3,4.33l-7.69,31.44A3.19,3.19,0,0,1,730.65,1363.63Z"/><path class="cls-50" d="M851.47,1363.54l-79.87.06a3.38,3.38,0,0,1-3-4.26l7-31.44a3.19,3.19,0,0,1,3-2.62l78.21-.07a3.35,3.35,0,0,1,3.07,4.07l-5.38,31.46A3.21,3.21,0,0,1,851.47,1363.54Z"/><path class="cls-50" d="M1367.15,1324.74l-33.77,0-84.42.08-33.77,0-84.43.08-33.77,0-84.42.07-115.55.11a3.22,3.22,0,0,0-3.07,2.88l-4.72,31.46a3.35,3.35,0,0,0,3.08,4l117.34-.09,86.44-.07,34.58,0,86.44-.06,34.58,0,86.44-.07,34.58,0,82.57-.07a3.36,3.36,0,0,0,3-4.16l-6.22-31.54a3.23,3.23,0,0,0-3.06-2.71Z"/><path class="cls-50" d="M1576,1363l-79.8.06a3.18,3.18,0,0,1-3-2.63l-6.89-31.55a3.37,3.37,0,0,1,3-4.24l78.14-.07a3.17,3.17,0,0,1,3,2.46l8.55,31.55A3.39,3.39,0,0,1,1576,1363Z"/><path class="cls-50" d="M1696.68,1362.89,1617,1363a3.17,3.17,0,0,1-3-2.39l-9.21-31.56a3.41,3.41,0,0,1,3-4.49l78-.07a3.14,3.14,0,0,1,2.92,2.22l10.87,31.57C1700.37,1360.48,1698.86,1362.89,1696.68,1362.89Z"/><path class="cls-50" d="M800.28,1271.62l-12.1,0-112,.13a3.15,3.15,0,0,0-3,2.36l-9.36,31.43a3.4,3.4,0,0,0,3,4.51l112.75-.11,12.4,0,68.63-.06a3.24,3.24,0,0,0,3.07-2.81l5.37-31.45a3.34,3.34,0,0,0-3.07-4.07Z"/><path class="cls-50" d="M977.49,1309.76l-77.13.08a3.36,3.36,0,0,1-3.09-4l4.72-31.46a3.23,3.23,0,0,1,3.08-2.88l75.47-.09a3.34,3.34,0,0,1,3.11,3.81l-3.06,31.47A3.25,3.25,0,0,1,977.49,1309.76Z"/><path class="cls-50" d="M1094.31,1309.64l-77.18.08A3.33,3.33,0,0,1,1014,1306l2.4-31.48a3.25,3.25,0,0,1,3.1-3.15l75.53-.09a3.31,3.31,0,0,1,3.12,3.53l-.74,31.49A3.27,3.27,0,0,1,1094.31,1309.64Z"/><path class="cls-50" d="M1211.12,1309.53l-77.19.07a3.27,3.27,0,0,1-3.12-3.44l.07-31.5a3.3,3.3,0,0,1,3.12-3.43l75.53-.08a3.26,3.26,0,0,1,3.12,3.24l1.58,31.51A3.31,3.31,0,0,1,1211.12,1309.53Z"/><path class="cls-50" d="M1327.9,1309.41l-77.15.08a3.25,3.25,0,0,1-3.11-3.17l-2.25-31.51a3.32,3.32,0,0,1,3.11-3.71l75.5-.09a3.24,3.24,0,0,1,3.09,3l3.9,31.52A3.34,3.34,0,0,1,1327.9,1309.41Z"/><path class="cls-50" d="M1444.67,1309.3l-77.08.07a3.23,3.23,0,0,1-3.09-2.89l-4.56-31.53a3.34,3.34,0,0,1,3.07-4l75.43-.09a3.21,3.21,0,0,1,3,2.71l6.23,31.54A3.38,3.38,0,0,1,1444.67,1309.3Z"/><path class="cls-50" d="M1555.19,1270.75h-12.44l-65.2.08a3.37,3.37,0,0,0-3,4.24l6.89,31.54a3.2,3.2,0,0,0,3,2.64l68.4-.07h12.75l112.55-.11a3.41,3.41,0,0,0,2.91-4.66l-10.87-31.57a3.14,3.14,0,0,0-2.92-2.22Z"/><path class="cls-50" d="M781.18,1218l-45.64.07-43.37.06a3.16,3.16,0,0,0-3,2.37l-9.36,31.42a3.4,3.4,0,0,0,3,4.51l42.49,0,46.81-.06,44.31,0a3.21,3.21,0,0,0,3-2.68l6.48-31.45a3.36,3.36,0,0,0-3.05-4.19Z"/><path class="cls-50" d="M926.26,1256.14l-74.26.09a3.35,3.35,0,0,1-3.06-4.13l5.87-31.45a3.21,3.21,0,0,1,3.06-2.74l72.6-.11a3.36,3.36,0,0,1,3.1,3.94l-4.22,31.47A3.24,3.24,0,0,1,926.26,1256.14Z"/><path class="cls-50" d="M1039.14,1256l-74.33.09a3.33,3.33,0,0,1-3.1-3.86l3.55-31.47a3.24,3.24,0,0,1,3.1-3l72.67-.1a3.31,3.31,0,0,1,3.12,3.66l-1.9,31.48A3.26,3.26,0,0,1,1039.14,1256Z"/><path class="cls-50" d="M1152,1255.86l-74.36.1a3.3,3.3,0,0,1-3.12-3.59l1.23-31.49a3.28,3.28,0,0,1,3.11-3.29l72.71-.1a3.28,3.28,0,0,1,3.12,3.39l.43,31.5A3.3,3.3,0,0,1,1152,1255.86Z"/><path class="cls-50" d="M1264.84,1255.73l-74.35.09a3.29,3.29,0,0,1-3.13-3.31l-1.08-31.5a3.3,3.3,0,0,1,3.11-3.57l72.7-.1a3.25,3.25,0,0,1,3.11,3.11l2.74,31.51A3.33,3.33,0,0,1,1264.84,1255.73Z"/><path class="cls-50" d="M1377.66,1255.59l-74.3.09a3.24,3.24,0,0,1-3.1-3l-3.41-31.52a3.34,3.34,0,0,1,3.09-3.85l72.64-.1a3.22,3.22,0,0,1,3.08,2.84l5.06,31.53A3.35,3.35,0,0,1,1377.66,1255.59Z"/><path class="cls-50" d="M1490.45,1255.45l-74.2.09a3.2,3.2,0,0,1-3.06-2.76l-5.73-31.54a3.35,3.35,0,0,1,3-4.11l72.55-.1a3.19,3.19,0,0,1,3,2.58l7.38,31.54A3.38,3.38,0,0,1,1490.45,1255.45Z"/><path class="cls-50" d="M1605.62,1216.85l-45.28.07-41.17.06a3.39,3.39,0,0,0-3,4.36l8,31.55a3.17,3.17,0,0,0,3,2.51l44.07-.05,46.44-.06,41.92,0a3.4,3.4,0,0,0,2.91-4.65L1651.66,1219a3.14,3.14,0,0,0-2.92-2.22Z"/><path class="cls-50" d="M770,1202.71l-71.26.1a3.39,3.39,0,0,1-3-4.5l9.35-31.43a3.19,3.19,0,0,1,3-2.37l69.6-.11a3.38,3.38,0,0,1,3,4.33l-7.7,31.44A3.18,3.18,0,0,1,770,1202.71Z"/><path class="cls-50" d="M879,1202.55l-71.39.1a3.37,3.37,0,0,1-3-4.26l7-31.44a3.2,3.2,0,0,1,3-2.61l69.73-.12a3.35,3.35,0,0,1,3.07,4.07l-5.37,31.46A3.23,3.23,0,0,1,879,1202.55Z"/><path class="cls-50" d="M987.92,1202.39l-71.48.1a3.35,3.35,0,0,1-3.08-4l4.72-31.46a3.22,3.22,0,0,1,3.07-2.87L991,1164a3.33,3.33,0,0,1,3.11,3.8L991,1199.31A3.26,3.26,0,0,1,987.92,1202.39Z"/><path class="cls-50" d="M1096.83,1202.22l-71.52.11a3.33,3.33,0,0,1-3.12-3.72l2.4-31.48a3.25,3.25,0,0,1,3.1-3.15l69.87-.12a3.31,3.31,0,0,1,3.13,3.53l-.74,31.49A3.28,3.28,0,0,1,1096.83,1202.22Z"/><path class="cls-50" d="M1205.72,1202.06l-71.53.11a3.3,3.3,0,0,1-3.13-3.45l.08-31.49a3.29,3.29,0,0,1,3.11-3.43l69.88-.12a3.27,3.27,0,0,1,3.12,3.25l1.58,31.51A3.31,3.31,0,0,1,1205.72,1202.06Z"/><path class="cls-50" d="M1314.59,1201.9l-71.5.11a3.25,3.25,0,0,1-3.11-3.17l-2.25-31.51a3.32,3.32,0,0,1,3.11-3.71l69.84-.12a3.25,3.25,0,0,1,3.1,3l3.9,31.52A3.34,3.34,0,0,1,1314.59,1201.9Z"/><path class="cls-50" d="M1423.44,1201.74l-71.43.11a3.23,3.23,0,0,1-3.08-2.9l-4.57-31.53a3.36,3.36,0,0,1,3.08-4l69.77-.11a3.19,3.19,0,0,1,3,2.7l6.23,31.54A3.37,3.37,0,0,1,1423.44,1201.74Z"/><path class="cls-50" d="M1532.27,1201.58l-71.31.11a3.2,3.2,0,0,1-3-2.64l-6.89-31.54a3.38,3.38,0,0,1,3-4.25l69.66-.11a3.16,3.16,0,0,1,3,2.45l8.55,31.56A3.39,3.39,0,0,1,1532.27,1201.58Z"/><path class="cls-50" d="M1641.09,1201.42l-71.17.1a3.16,3.16,0,0,1-3-2.38l-9.21-31.57a3.39,3.39,0,0,1,3-4.48l69.51-.12a3.14,3.14,0,0,1,2.92,2.22l10.87,31.57C1644.78,1199,1643.27,1201.42,1641.09,1201.42Z"/><rect class="cls-56" x="432.89" y="448.59" width="498.89" height="422.61"/><rect class="cls-57" x="432.89" y="448.59" width="498.89" height="59.3"/><circle class="cls-20" cx="478.04" cy="477.16" r="13.8" transform="translate(-197.38 477.78) rotate(-45)"/><circle class="cls-58" cx="524.05" cy="477.16" r="13.8" transform="translate(-60.74 877.56) rotate(-76.72)"/><circle class="cls-59" cx="571.59" cy="477.16" r="13.8" transform="translate(-24.13 923.83) rotate(-76.72)"/><rect class="cls-60" x="497.3" y="491.53" width="498.89" height="422.61"/><path class="cls-61" d="M579.37,609.32h0Z"/><rect class="cls-62" x="579.37" y="607.03" width="46.24" height="4.58"/><path class="cls-61" d="M637.45,609.32h0Z"/><rect class="cls-63" x="637.45" y="607.03" width="32.3" height="4.58"/><path class="cls-57" d="M678.33,609.32h0Z"/><rect class="cls-57" x="678.33" y="607.03" width="206.14" height="4.58"/><path class="cls-63" d="M893,609.32h0Z"/><rect class="cls-63" x="892.97" y="607.03" width="32.3" height="4.58"/><path class="cls-61" d="M588.45,621.26h0Z"/><rect class="cls-62" x="588.45" y="618.97" width="46.24" height="4.58"/><path class="cls-61" d="M646.54,621.26h0Z"/><rect class="cls-63" x="646.54" y="618.97" width="32.3" height="4.58"/><path class="cls-57" d="M687.42,621.26h0Z"/><rect class="cls-57" x="687.42" y="618.97" width="206.14" height="4.58"/><path class="cls-63" d="M902.05,621.26h0Z"/><rect class="cls-63" x="902.05" y="618.97" width="32.3" height="4.58"/><path class="cls-61" d="M597.54,633.2h0Z"/><rect class="cls-62" x="597.54" y="630.91" width="46.24" height="4.58"/><path class="cls-61" d="M655.62,633.2h0Z"/><rect class="cls-63" x="655.62" y="630.91" width="32.3" height="4.58"/><path class="cls-57" d="M696.5,633.2h0Z"/><rect class="cls-57" x="696.5" y="630.91" width="206.14" height="4.58"/><path class="cls-63" d="M911.14,633.2h0Z"/><rect class="cls-63" x="911.14" y="630.91" width="32.3" height="4.58"/><path class="cls-61" d="M615.92,645.13h0Z"/><rect class="cls-62" x="615.92" y="642.85" width="46.24" height="4.58"/><path class="cls-61" d="M674,645.13h0Z"/><rect class="cls-63" x="674" y="642.85" width="32.3" height="4.58"/><path class="cls-57" d="M714.88,645.13h0Z"/><rect class="cls-57" x="714.88" y="642.85" width="206.14" height="4.58"/><path class="cls-63" d="M929.52,645.13h0Z"/><rect class="cls-63" x="929.52" y="642.85" width="32.3" height="4.58"/><path class="cls-61" d="M596.4,659.31h0Z"/><rect class="cls-62" x="596.4" y="657.02" width="46.24" height="4.58"/><path class="cls-61" d="M654.49,659.31h0Z"/><rect class="cls-63" x="654.49" y="657.02" width="32.3" height="4.58"/><path class="cls-57" d="M695.37,659.31h0Z"/><rect class="cls-57" x="695.37" y="657.02" width="206.14" height="4.58"/><path class="cls-63" d="M910,659.31h0Z"/><rect class="cls-63" x="910" y="657.02" width="32.3" height="4.58"/><path class="cls-61" d="M586.18,673.48h0Z"/><rect class="cls-62" x="586.18" y="671.19" width="46.24" height="4.58"/><path class="cls-61" d="M644.26,673.48h0Z"/><rect class="cls-63" x="644.26" y="671.19" width="32.3" height="4.58"/><path class="cls-57" d="M685.15,673.48h0Z"/><rect class="cls-57" x="685.15" y="671.19" width="206.14" height="4.58"/><path class="cls-61" d="M899.78,673.48h0Z"/><rect class="cls-63" x="899.78" y="671.19" width="32.3" height="4.58"/><path class="cls-61" d="M576,687.66h0Z"/><rect class="cls-62" x="575.96" y="685.37" width="46.24" height="4.58"/><path class="cls-61" d="M634,687.66h0Z"/><rect class="cls-63" x="634.04" y="685.37" width="32.3" height="4.58"/><path class="cls-57" d="M674.93,687.66h0Z"/><rect class="cls-57" x="674.93" y="685.37" width="206.14" height="4.58"/><path class="cls-61" d="M889.56,687.66h0Z"/><rect class="cls-63" x="889.56" y="685.37" width="32.3" height="4.58"/><path class="cls-61" d="M548.71,708.55h0Z"/><rect class="cls-57" x="548.71" y="706.26" width="46.24" height="4.58"/><path class="cls-61" d="M548.71,721.23h0Z"/><rect class="cls-62" x="548.71" y="718.94" width="46.24" height="4.58"/><path class="cls-61" d="M612.3,721.23h0Z"/><rect class="cls-63" x="612.3" y="718.94" width="81.38" height="4.58"/><path class="cls-61" d="M548.71,594.4h0Z"/><rect class="cls-57" x="548.71" y="592.11" width="46.24" height="4.58"/><path class="cls-61" d="M548.71,581.72h0Z"/><rect class="cls-62" x="548.71" y="579.43" width="46.24" height="4.58"/><path class="cls-61" d="M612.3,581.72h0Z"/><rect class="cls-63" x="612.3" y="579.43" width="81.38" height="4.58"/><path class="cls-61" d="M579.37,765.25h0Z"/><rect class="cls-62" x="579.37" y="762.96" width="46.24" height="4.58"/><path class="cls-61" d="M637.45,765.25h0Z"/><rect class="cls-63" x="637.45" y="762.96" width="32.3" height="4.58"/><path class="cls-57" d="M678.33,765.25h0Z"/><rect class="cls-57" x="678.33" y="762.96" width="206.14" height="4.58"/><path class="cls-61" d="M893,765.25h0Z"/><rect class="cls-63" x="892.97" y="762.96" width="32.3" height="4.58"/><path class="cls-61" d="M588.45,777.19h0Z"/><rect class="cls-62" x="588.45" y="774.9" width="46.24" height="4.58"/><path class="cls-61" d="M646.54,777.19h0Z"/><rect class="cls-63" x="646.54" y="774.9" width="32.3" height="4.58"/><path class="cls-57" d="M687.42,777.19h0Z"/><rect class="cls-57" x="687.42" y="774.9" width="206.14" height="4.58"/><path class="cls-61" d="M902.05,777.19h0Z"/><rect class="cls-63" x="902.05" y="774.9" width="32.3" height="4.58"/><path class="cls-61" d="M597.54,789.12h0Z"/><rect class="cls-62" x="597.54" y="786.83" width="46.24" height="4.58"/><path class="cls-61" d="M655.62,789.12h0Z"/><rect class="cls-63" x="655.62" y="786.83" width="32.3" height="4.58"/><path class="cls-57" d="M696.5,789.12h0Z"/><rect class="cls-57" x="696.5" y="786.83" width="206.14" height="4.58"/><path class="cls-61" d="M911.14,789.12h0Z"/><rect class="cls-63" x="911.14" y="786.83" width="32.3" height="4.58"/><path class="cls-61" d="M615.92,801.06h0Z"/><rect class="cls-62" x="615.92" y="798.77" width="46.24" height="4.58"/><path class="cls-61" d="M674,801.06h0Z"/><rect class="cls-63" x="674" y="798.77" width="32.3" height="4.58"/><path class="cls-57" d="M714.88,801.06h0Z"/><rect class="cls-57" x="714.88" y="798.77" width="206.14" height="4.58"/><path class="cls-61" d="M929.52,801.06h0Z"/><rect class="cls-63" x="929.52" y="798.77" width="32.3" height="4.58"/><path class="cls-61" d="M596.4,815.23h0Z"/><rect class="cls-62" x="596.4" y="812.94" width="46.24" height="4.58"/><path class="cls-61" d="M654.49,815.23h0Z"/><rect class="cls-63" x="654.49" y="812.94" width="32.3" height="4.58"/><path class="cls-57" d="M695.37,815.23h0Z"/><rect class="cls-57" x="695.37" y="812.94" width="206.14" height="4.58"/><path class="cls-61" d="M910,815.23h0Z"/><rect class="cls-63" x="910" y="812.94" width="32.3" height="4.58"/><path class="cls-61" d="M586.18,829.41h0Z"/><rect class="cls-62" x="586.18" y="827.12" width="46.24" height="4.58"/><path class="cls-61" d="M644.26,829.41h0Z"/><rect class="cls-63" x="644.26" y="827.12" width="32.3" height="4.58"/><path class="cls-57" d="M685.15,829.41h0Z"/><rect class="cls-57" x="685.15" y="827.12" width="206.14" height="4.58"/><path class="cls-61" d="M899.78,829.41h0Z"/><rect class="cls-63" x="899.78" y="827.12" width="32.3" height="4.58"/><path class="cls-61" d="M576,843.58h0Z"/><rect class="cls-62" x="575.96" y="841.29" width="46.24" height="4.58"/><path class="cls-61" d="M634,843.58h0Z"/><rect class="cls-63" x="634.04" y="841.29" width="32.3" height="4.58"/><path class="cls-57" d="M674.93,843.58h0Z"/><rect class="cls-57" x="674.93" y="841.29" width="206.14" height="4.58"/><path class="cls-61" d="M889.56,843.58h0Z"/><rect class="cls-63" x="889.56" y="841.29" width="32.3" height="4.58"/><path class="cls-61" d="M548.71,864.47h0Z"/><rect class="cls-57" x="548.71" y="862.18" width="46.24" height="4.58"/><path class="cls-61" d="M548.71,877.16h0Z"/><rect class="cls-62" x="548.71" y="874.87" width="46.24" height="4.58"/><path class="cls-61" d="M612.3,877.16h0Z"/><rect class="cls-63" x="612.3" y="874.87" width="81.38" height="4.58"/><path class="cls-61" d="M548.71,750.33h0Z"/><rect class="cls-57" x="548.71" y="748.04" width="46.24" height="4.58"/><path class="cls-61" d="M548.71,737.64h0Z"/><rect class="cls-62" x="548.71" y="735.35" width="46.24" height="4.58"/><path class="cls-61" d="M612.3,737.64h0Z"/><rect class="cls-63" x="612.3" y="735.35" width="81.38" height="4.58"/><rect class="cls-64" x="497.3" y="491.53" width="498.89" height="59.3"/><circle class="cls-20" cx="542.45" cy="520.1" r="13.8" transform="translate(-208.88 535.9) rotate(-45)"/><circle class="cls-58" cx="588.46" cy="520.1" r="13.8" transform="translate(-195.41 568.44) rotate(-45)"/><circle class="cls-59" cx="636" cy="520.1" r="13.8" transform="translate(-181.48 602.05) rotate(-45)"/><rect class="cls-60" x="1069.01" y="670.68" width="490.61" height="326.45"/><circle class="cls-64" cx="1315.52" cy="816.37" r="88.65"/><polygon class="cls-59" points="1289.25 767.24 1289.25 873.7 1379.55 813.06 1289.25 767.24"/><rect class="cls-64" x="1069.01" y="952.73" width="490.61" height="44.4"/><rect class="cls-65" x="1083.36" y="969.53" width="461.92" height="9.51"/><rect class="cls-66" x="1083.36" y="969.53" width="162.06" height="9.51"/><rect class="cls-66" x="1242.32" y="963.78" width="5.48" height="20.2"/><polygon class="cls-67" points="1800.62 309.99 1349.05 245.06 1330.63 692.7 1735.38 752.1 1800.62 309.99"/><rect class="cls-50" x="1258.62" y="254.72" width="497.3" height="446.89" transform="translate(186.61 -391.52) rotate(15.76)"/><polygon class="cls-59" points="1273.63 588.06 1649.14 694.07 1605.32 358.19 1492.93 473.51 1435.13 373.16 1273.63 588.06"/><circle class="cls-59" cx="1400.17" cy="296.07" r="32.35" transform="translate(33.75 721.55) rotate(-29.24)"/><path class="cls-20" d="M1621.91,195.59l-76.52,75c.54-.05,1.11-.09,1.69-.09a14,14,0,0,1,6.37,1.45l68.48-67.11,49.9,48.31L1551.37,368.2h-74.72V293.52l115.25-116.3-4.7-4.66L1471,289.83l-1,1v84h84l127.35-121.66Z"/><path class="cls-20" d="M1603.07,273.29l15.77-15.58-4.65-4.7-17.8,17.58A12.68,12.68,0,0,1,1603.07,273.29Z"/><path class="cls-53" d="M511.08,129.48,431.26,72.8V92.24H261.44c.53-.72-.45,76.09,0,76.09H431.26V192.4Z"/><path class="cls-53" d="M236.61,252.67l79.81,56.69V289.91H486.25c-.54.73.45-76.09,0-76.09H316.42V189.75Z"/><path class="cls-68" d="M496.08,139.48,416.26,82.8v19.44H246.44c.53-.72-.45,76.09,0,76.09H416.26V202.4Z"/><path class="cls-68" d="M221.61,262.67l79.81,56.69V299.91H471.25c-.54.73.45-76.09,0-76.09H301.42V199.75Z"/><rect class="cls-69" x="1722.26" y="767.85" width="295.06" height="414.32"/><path class="cls-70" d="M1935.25,969.27,1888.1,887.6,1842.29,967A50.27,50.27,0,0,1,1866,990.09h36.9V969.27Z"/><path class="cls-71" d="M1842.29,967A50.22,50.22,0,1,0,1866,990.09h-37Z"/><path class="cls-72" d="M1842.29,967l-13.36,23.14h37A50.27,50.27,0,0,0,1842.29,967Z"/><polygon class="cls-73" points="1935.25 969.27 1947.27 990.09 1902.86 990.09 1902.86 1035.03 1968.62 1035.03 1968.62 969.27 1935.25 969.27"/><polygon class="cls-72" points="1935.25 969.27 1902.86 969.27 1902.86 990.09 1947.27 990.09 1935.25 969.27"/><circle class="cls-71" cx="1805.32" cy="1134.76" r="17.9"/><circle class="cls-70" cx="1869.8" cy="1134.76" r="17.9"/><circle class="cls-73" cx="1934.27" cy="1134.76" r="17.9"/><rect class="cls-72" x="1803.57" y="807.06" width="132.44" height="17.9"/><path class="cls-74" d="M575.3,1024.81c1.09,9.35,1.56,18.7.31,22.44s-10.59,11.06-8.72,12.93,28.51,30.08,38.33,28.67,39.27-6.85,38.18-16.67-10.29-22.75-10.29-22.75-16.2-5.76-16.67-6.85-1.87-15-1.87-15Z"/><path class="cls-75" d="M731.06,1578.55l2.33,18.68,23.35.58s6.42.58,5.83-1.17-7-26.26-9.34-26.26S731.06,1578.55,731.06,1578.55Z"/><path class="cls-75" d="M596.83,1583.22c4.47-1.49-2.91,16.34,0,18.09s7,4.67,11.09,4.09a93.9,93.9,0,0,1,10.51-.59l5.25,5.84L619,1580.89S593.33,1584.39,596.83,1583.22Z"/><path class="cls-76" d="M746.81,1590.22c1.38-6.89,9.93-.58,15.76,6.42s23.93,25.1,30.35,29.18,2.92,13.42-2.92,13.42-37.35-2.33-40.27-4.66-22.17-8.17-22.76-12.84,1.75-24.51,6.42-24.51S745.65,1596.06,746.81,1590.22Z"/><path class="cls-76" d="M603.84,1596.64c6.82-2,11.67,5.84,14.59,8.17s8.17-2.91,8.17-1.16,9.33,27.42.58,32.09-18.09,14.59-26.85,14.59-27.42,1.17-27.42-.58-2.92-15.76,2.33-21,13.42-18.09,16.34-23.34S599.75,1597.81,603.84,1596.64Z"/><path class="cls-20" d="M634.77,1287.34c1.16,9.34,7.58,31.52,16.92,43.77s49,108,51.36,130.14,25.09,116.13,28,117.3,26.26,1.17,28.59-2.92-8.75-131.3-14-147.64-44.35-157-44.35-157Z"/><path class="cls-77" d="M579.91,1276.84c0,15.17,1.75,124.3,3.5,131.89s7.59,31.51,7,37.93-4.08,46.69-2.33,73.53.58,66.53,7.59,68.28,25.67.59,28-2.33,9.34-96.29,8.75-106.8-2.33-61.86-1.17-75.28,14-69.45,15.76-70.61,11.09-8.76,11.09-8.76-14-50.77-15.76-50.77S579.91,1276.84,579.91,1276.84Z"/><path class="cls-75" d="M771.66,1161.86c6.58.3,21.82,1.49,22.72.59a108.87,108.87,0,0,1,17-9.65c2.76-1.13,8.09-5.62,21.3-1.36,1.17.38-14.07,2.94-11.67,4.14s25.39,4.49,25.26,5.38c-1.44,9.83-25.56,19.43-29.15,20.93s-19.13,3.28-19.73,2.39-4.78-3.59-6.28-3.59-31.39,4.78-31.39,3.59,5.68-26.31,5.68-26.31Z"/><path class="cls-75" d="M622.41,988.27c1.86-.31,2.17,3.72,2.8,8.07s-1.75,10.58-2.18,12.73c-.31,1.56-5.9,27-18,28.58s-26.71-5.28-29.51-8.39S569,1015,569,1015a34.86,34.86,0,0,1-6.21,1.24c-1.86,0-15.22-20.5-7.14-20.19s14.6-41,14.6-41,21.74-1.25,24.22-1.56,13.66,3.42,14.6,3.73,8.07,7.14,9.31,8.7S622.41,988.27,622.41,988.27Z"/><path class="cls-78" d="M567.51,1008.92c.62-.31,2.49-.78,2.49-1.87s-4.36-10.29-3.42-17.14-1.72-18.08,3.27-21.35,21.35-8.88,23.84-9,10.75-1.56,13.71,0a25,25,0,0,1,11.06,12.78,90,90,0,0,1,3.95,16s.57-6.47.57-13a31,31,0,0,0-5.14-15.89c-1.71-2.19-5.45-3.28-5.76-3.74s-6.55-12.78-17.77-12.94-25.24,2.5-28.2,6.7-12.78,15.12-13.4,22.75,2.33,18.08,3.58,19.79S567.51,1008.92,567.51,1008.92Z"/><path class="cls-78" d="M575.15,987.41c3-.15,3.58-3.58,9-3.42s10.44,1.87,9.51-1.09-6.08-5.15-13.56-2.19S575.15,987.41,575.15,987.41Z"/><path class="cls-78" d="M604.44,981c1.34,2.15,3.9.46,6.23.15s7.79,1.87,8.11.94-3.12-4.83-7.8-4.06S603.66,979.78,604.44,981Z"/><path class="cls-78" d="M584.5,990.69c-1.1.46-.47,3.27,1.4,2.49S587.77,989.28,584.5,990.69Z"/><path class="cls-78" d="M609.74,987.73c-1.09.46-.47,3.27,1.4,2.49S613,986.32,609.74,987.73Z"/><path class="cls-74" d="M602.1,987.73c1.41-1.25,8.42,14.95,8.11,16.2s-10,7.17-9.82,5.61,7.48-3.27,6.7-6.7S601.28,988.46,602.1,987.73Z"/><path class="cls-22" d="M589.17,1016.09c2.18,0,11.37,1.4,15.11.31s8.26-3,8.26-3-2,7.79-9.81,7.94S589.17,1016.09,589.17,1016.09Z"/><path class="cls-22" d="M581.83,1066.79c20,6.58,23,7.77,27.5,5.68s17.94-10.76,18.83-9.87,49.93,84.31,49.93,85.5,49.62,133.34,24.51,141.11-55.6,12.26-62.78,9.86-42.45-11.65-42.45-13.15-25.71-121.07-25.71-121.07l4.19-74.74Z"/><path class="cls-79" d="M570.17,1047.66s8.07,7.77,9.56,9.86,8.07,12.86,7.78,19.43,1.19,98.36,1.49,105.83,26,124.37,23,125.26-35.58-23.31-37.37-27.8-11.06-66.67-11.66-75.33-15.54-40.36-16.14-53.22-26.91-55.9-24.22-62.78S570.17,1047.66,570.17,1047.66Z"/><path class="cls-79" d="M633.11,1049.43s-3.75,16.76-9.13,19.15,26.6,76.54,26.9,79.52,21.53,74.44,28.1,85.8,13.76,60.39,16.15,61,28.7-2.69,28.7-2.69-7.78-66.07-11.66-75.64-14-59.19-15.55-71.74-4.48-46-5.08-59.2-1.2-21.22-1.2-21.22-9-11.06-26.6-12.26S633.11,1049.43,633.11,1049.43Z"/><path class="cls-80" d="M615.61,1037.79c3.88,0,16.14,1.8,17.34,5.68a77.23,77.23,0,0,0,4.78,10.47s-1.5,29.59-7.18,25.71-9.56-9.27-9-10.17,7.17-17.64,6-20-11.13-6.87-11.13-6.87Z"/><path class="cls-80" d="M573.16,1044.37c1.49,1.19,15.84,21.22,15.84,24.81s-5.08,12.86-6,12.86-22.12-28.7-21.22-29.3S573.16,1044.37,573.16,1044.37Z"/><path class="cls-80" d="M690.34,1064.4c1.5.9,26.61,38.86,30.8,50.22s9.56,19.73,13.15,20.93a27.93,27.93,0,0,1,5.08,2.09s-2.09,5.38,4.49,8.67,18.83,9,17,11.06-7.18,34.08-17,30.5-17.94-5.39-21.23-6.58-3,2.69-5.08-2.09a21.94,21.94,0,0,0-4.78-7.18s.59,10.76-5.09-1.79-19.81-31.7-19.81-31.7l1.28-75.93Z"/><path class="cls-79" d="M759.1,1151.09c2.4,1.5,15.25,4.19,13.16,6.28s-8.37,6.88-8.67,16.74.6,17-.9,17.64-14.35,3.89-15,1.2-4.78-10.17-1.19-17.64S759.1,1151.09,759.1,1151.09Z"/><path class="cls-80" d="M532.89,1079.4c-7.77,5.3-77.09,82.94-72,111.9,2.75,15.73,25.18,57,51.11,55.74,7.88-.38,19.29-17.76,19.29-17.76s-30.29-22.92-25.5-40.52c3.88-14.26,38.75-47.82,37.57-51.23C540.69,1129.9,532.89,1079.4,532.89,1079.4Z"/><path class="cls-81" d="M553.79,1160l-24.94,28.66s12.91,9,13.56,8.54,24.73-29.55,23.86-30.2S553.79,1160,553.79,1160Z"/><polygon class="cls-82" points="616.25 1204.04 695.99 1205.28 629.32 1232.3 617.27 1227.98 616.25 1204.04"/><path class="cls-83" d="M621.12,1229.28l-123.49-.21a5.5,5.5,0,0,1-5.48-5.49l-11.58-87.86a5.51,5.51,0,0,1,5.5-5.48l123.49.21a5.49,5.49,0,0,1,5.47,5.49l11.58,87.87A5.49,5.49,0,0,1,621.12,1229.28Z"/><path class="cls-82" d="M612.4,1229.27l-123.49-.21a5.51,5.51,0,0,1-5.48-5.49l-11.58-87.87a5.5,5.5,0,0,1,5.5-5.47l123.48.21a5.49,5.49,0,0,1,5.48,5.49l11.58,87.86A5.5,5.5,0,0,1,612.4,1229.27Z"/><path class="cls-83" d="M484.4,1236.51l141.45-.74,70.22-21.92a2.78,2.78,0,0,0,2.75-2.79v-3a2.78,2.78,0,0,0-2.79-2.76l-71.23,21.93-140.44.74a2.77,2.77,0,0,0-2.75,2.78v3A2.78,2.78,0,0,0,484.4,1236.51Z"/><path class="cls-75" d="M517.85,1244.36l21.41-.53,19.8,4.28s35.32-4.82,37.46-6.43,3.73-5.91,3.73-5.91l-74.91-.51Z"/><polygon class="cls-63" points="106.37 464.2 332.19 464.2 332.19 775.9 151.7 774.95 106.37 734.06 106.37 464.2"/><polygon class="cls-84" points="312.19 795.89 86.38 795.89 86.38 484.19 266.87 485.13 312.19 526.02 312.19 795.89"/><path class="cls-22" d="M269.19,486.47S270.84,527,275.28,527s39.24.37,39.24.37Z"/><circle class="cls-22" cx="198.92" cy="643.03" r="73.19" transform="translate(-396.43 329) rotate(-45)"/><polygon class="cls-72" points="203.38 722.59 121.9 657.75 156.96 615.06 194.01 639.28 241.27 553.3 289.56 580.13 203.38 722.59"/><polygon class="cls-63" points="189.17 722.59 107.69 657.75 142.75 615.06 179.8 639.28 227.06 553.3 275.35 580.13 189.17 722.59"/><path class="cls-85" d="M1580.3,1131.42s-26.14,79.79-29.33,82.95-54.19,12.57-54.19,12.57l11,21.67s58.18,10.24,60.11,5.81,18-36.05,21.15-39.84S1580.3,1131.42,1580.3,1131.42Z"/><path class="cls-86" d="M1598.46,1056.63c-.21,2.22-8.6,48.95,19.63,49.68L1615.9,1134l29.46-1.93.18-42.09s11.57-10,6.66-18-10.86-27.33-10.86-27.33l-41.19-5.83Z"/><path class="cls-87" d="M1608,1082.16a5.9,5.9,0,0,0,.71,0,.65.65,0,0,0,.6-.69.64.64,0,0,0-.65-.64,5.9,5.9,0,0,1-4.21-1.84c-.66-.73,1-4.18,3.12-10.92a.67.67,0,0,0-.4-.84.62.62,0,0,0-.79.42c-.53,1.67-5,9.92-2.83,12.27A7.1,7.1,0,0,0,1608,1082.16Z"/><path class="cls-88" d="M1614.28,1061.1c-.57.69-2.06,2.15,3.5,1s13.65-.27,13.65-.27S1619.31,1055.08,1614.28,1061.1Z"/><path class="cls-88" d="M1605.52,1060.71c.73,1.26-2,1.36-2.69.89s-5.54-.32-5.54-.32S1603.18,1056.66,1605.52,1060.71Z"/><path class="cls-89" d="M1637.23,1075.55c0-.21,0-.43,0-.65q-5,.35-9.85.91a28.16,28.16,0,0,0-.8-8.14,16.15,16.15,0,0,0-1.59-4.21,10,10,0,0,0-3.29-3.76,7.53,7.53,0,0,0-5.6-1.23,7.45,7.45,0,0,0-4.29,2.82,16.91,16.91,0,0,0-3,7.7,5.41,5.41,0,0,0-2.61-.23l-.39,0a16.51,16.51,0,0,0-1.37-5.91,8.17,8.17,0,0,0-2.18-3,7.11,7.11,0,0,0-4-1.62h0l-.26,0-.23.13a6.41,6.41,0,0,0-2.36,2.2,11.68,11.68,0,0,0-1.28,2.48,20.34,20.34,0,0,0-1.13,5.21c-.21,3.48-.4,7.07,1.36,10.59a5.21,5.21,0,0,0,2.39,2.23,4.6,4.6,0,0,0,3.56-.08,7.12,7.12,0,0,0,3.8-4.24,24,24,0,0,0,1.2-5.11l.23-1.26a3.6,3.6,0,0,1,.27-.87l.25,0a6.08,6.08,0,0,1,2.25.25,19.78,19.78,0,0,0,.42,7.13,9.79,9.79,0,0,0,4.85,6.74,8.49,8.49,0,0,0,4.94.73,10.11,10.11,0,0,0,4.16-1.8,16.2,16.2,0,0,0,4.83-6.08Q1632.33,1075.9,1637.23,1075.55Zm-32.64-5.31-.27,1.28a24.68,24.68,0,0,1-1.31,4.93,6.31,6.31,0,0,1-3.36,3.63,3.06,3.06,0,0,1-2.39,0,3.86,3.86,0,0,1-1.69-1.7c-1.44-3.05-1.24-6.62-.91-9.94a18.94,18.94,0,0,1,1.2-4.85,7.92,7.92,0,0,1,2.65-3.58,5.81,5.81,0,0,1,4.59,3.26,16.63,16.63,0,0,1,1.91,5.85,1.55,1.55,0,0,0-.22.42A4.15,4.15,0,0,0,1604.59,1070.24Zm16.77,11a8.32,8.32,0,0,1-3.36,1.36,6.84,6.84,0,0,1-3.49-.54c-2.17-1-3.35-3.3-4.14-5.52a29.34,29.34,0,0,1-1.28-6.77l.23.12.15-.43a22.41,22.41,0,0,1,3.84-7.32,6,6,0,0,1,3.31-2.13,5.64,5.64,0,0,1,3.88.93,8.25,8.25,0,0,1,2.77,3.09,19.92,19.92,0,0,1,1.67,3.85,42.35,42.35,0,0,1,1.64,8.24h0v.17A22.13,22.13,0,0,1,1621.36,1081.29Z"/><path class="cls-90" d="M1593.6,1075.2a32.81,32.81,0,0,0-1.34-9.87c-1.74-5.7-2-11.31.76-16.79,4-7.86,8.78-15,17.19-18a66.75,66.75,0,0,1,14.78-3,95.19,95.19,0,0,1,18.49,0c3.64.3,7.32,0,10.92,1a9.43,9.43,0,0,1,4.93,3.44,53.11,53.11,0,0,1,5.27,8.6,103.28,103.28,0,0,1,7.94,21.12c2,7.54.23,21-5.08,26.19-.22.44-7.07-3-10,1.1-2.44,2.63-10.24,9.78-13.5,11-1.55.59,5.14-6.78-9.75-10.79-2-.55,1.4-3.79,3.34-4.72.92-.43,1.83-.89,2.72-1.39,3-1.7,3.58-4.65,3.2-7.8a2.91,2.91,0,0,0-2.18-2.57c-1.25-.33-2,.53-2.68,1.48-3.62,5.06-3.69,5.07-8.15.73a201.74,201.74,0,0,1-18-20.59,39.72,39.72,0,0,1-4.25-7.66c-.67-1.43-1.24-1.42-2.12-.22-2,2.69-2.45,6-3.21,9.12-1.29,5.31-2.55,10.63-4.77,15.62a15.81,15.81,0,0,1-3,4.43C1594.37,1076.55,1593.75,1076.5,1593.6,1075.2Z"/><path class="cls-89" d="M1637.23,1075.55c0-.21,0-.43,0-.65q-5,.35-9.85.91a28.16,28.16,0,0,0-.8-8.14,16.15,16.15,0,0,0-1.59-4.21,10,10,0,0,0-3.29-3.76,7.53,7.53,0,0,0-5.6-1.23,7.45,7.45,0,0,0-4.29,2.82,16.91,16.91,0,0,0-3,7.7,5.41,5.41,0,0,0-2.61-.23l-.39,0a16.51,16.51,0,0,0-1.37-5.91,8.17,8.17,0,0,0-2.18-3,7.11,7.11,0,0,0-4-1.62h0l-.26,0-.23.13a6.41,6.41,0,0,0-2.36,2.2,11.68,11.68,0,0,0-1.28,2.48,20.34,20.34,0,0,0-1.13,5.21c-.21,3.48-.4,7.07,1.36,10.59a5.21,5.21,0,0,0,2.39,2.23,4.6,4.6,0,0,0,3.56-.08,7.12,7.12,0,0,0,3.8-4.24,24,24,0,0,0,1.2-5.11l.23-1.26a3.6,3.6,0,0,1,.27-.87l.25,0a6.08,6.08,0,0,1,2.25.25,19.78,19.78,0,0,0,.42,7.13,9.79,9.79,0,0,0,4.85,6.74,8.49,8.49,0,0,0,4.94.73,10.11,10.11,0,0,0,4.16-1.8,16.2,16.2,0,0,0,4.83-6.08Q1632.33,1075.9,1637.23,1075.55Zm-32.64-5.31-.27,1.28a24.68,24.68,0,0,1-1.31,4.93,6.31,6.31,0,0,1-3.36,3.63,3.06,3.06,0,0,1-2.39,0,3.86,3.86,0,0,1-1.69-1.7c-1.44-3.05-1.24-6.62-.91-9.94a18.94,18.94,0,0,1,1.2-4.85,7.92,7.92,0,0,1,2.65-3.58,5.81,5.81,0,0,1,4.59,3.26,16.63,16.63,0,0,1,1.91,5.85,1.55,1.55,0,0,0-.22.42A4.15,4.15,0,0,0,1604.59,1070.24Zm16.77,11a8.32,8.32,0,0,1-3.36,1.36,6.84,6.84,0,0,1-3.49-.54c-2.17-1-3.35-3.3-4.14-5.52a29.34,29.34,0,0,1-1.28-6.77l.23.12.15-.43a22.41,22.41,0,0,1,3.84-7.32,6,6,0,0,1,3.31-2.13,5.64,5.64,0,0,1,3.88.93,8.25,8.25,0,0,1,2.77,3.09,19.92,19.92,0,0,1,1.67,3.85,42.35,42.35,0,0,1,1.64,8.24h0v.17A22.13,22.13,0,0,1,1621.36,1081.29Z"/><path class="cls-22" d="M1614.38,1088.09l-12.52-.71s1.92,6.46,6.8,5.85A6.63,6.63,0,0,0,1614.38,1088.09Z"/><path class="cls-88" d="M1614.73,1068.91a1.74,1.74,0,1,0,1.74-1.94A1.84,1.84,0,0,0,1614.73,1068.91Z"/><path class="cls-88" d="M1598.62,1068a1.74,1.74,0,1,0,1.73-1.94A1.84,1.84,0,0,0,1598.62,1068Z"/><path class="cls-17" d="M1740.53,1649.22c-.28,1.63-1,18.91-1.47,20.54s-7.38,24-7,24.83,8.68,4.28,11.37,4.18,13.92,2,14.14-3.32,3.83-27.86,4.24-32.78-7.09-22.75-7.09-22.75Z"/><path class="cls-91" d="M1732.88,1684.74a21,21,0,0,1-1.43,4.68,61,61,0,0,0,11.66,1.93c5.55.23,13.64-1.29,14.19.38s1,4.78-1.27,5.92-9.11,1.06-12.61,1.12-10.5-5.17-11.37-4.18-.81,4.71-.88,6.35,8.21,5.7,15.06,4.54,12.26-2.58,12.57-5.25.57-13.57.57-13.57-13.07-2.8-18-2.8A38.66,38.66,0,0,0,1732.88,1684.74Z"/><path class="cls-17" d="M1607.68,1624.14l9.74-1.45s-.3,17.29-.82,19.74-1.68,10.85-2.8,12.86-10.42,8-10.73,10.48-1.86,5.07.35,6.4a29,29,0,0,0,5.26,2.27s10.12,4.34,15,.83,8.3-6.45,8.86-10.13,4.59-21.24,7.63-25,7.94-7.71,9.11-11-4-11.9-4-11.9Z"/><path class="cls-92" d="M1679.84,1267.75l-45.73-7.13-5.92,52.08c-.78,9.76,2.52,66.36,2.52,66.36s7.93,44.75,8.47,59.08,18.6,132.53,18.6,132.53,12.45,72,12.12,79.94,48.2-.26,65.86.47,25.54-7.6,25.6-9.1-28.1-121.26-33.63-133.16-21.67-58.49-21.55-79.57-15.48-126-16.38-131.69c-.78-5-6.08-21.47-7.91-27Z"/><path class="cls-93" d="M1605.43,1253.41c4.82,1.7,28.68,7.21,28.68,7.21l-.6,96.35s-8.09,31.66-8,47.1,14.48,132,13.89,137.23,10.56,81.38,8.66,81.68-33.43,7.27-48.45,6.27-34.84-4.08-34.84-4.08-.66-156.63,1.38-169.35,3.28-106.4,3.79-109.77,9.39-53.82,11-55.64S1605.43,1253.41,1605.43,1253.41Z"/><path class="cls-91" d="M1644.69,1620.73c.08,3.1,3.52,4.68,3.21,7.14s-9.48,9.91-10.87,13.76-4.91,24.1-6.23,26.11-3.3.07-5.1-1.24-16.54-8.51-17.38-8.14-7.08,1.77-4.44,2.91,19.4,8.84,19.37,9.66,4,3.66-4.68,3.51-20.31-1.87-20.54-1.26-3,4,.83,4.77,22.23.3,24.73-.42,6.51-2.82,7.87-5.85,5.69-18.1,6.64-21.15,6-10.25,6-10.25l-1,24.67,2.07-.12s1-24.67,3.38-26.84,4.64-7.64,4.35-10.53-6.37-10.36-6.37-10.36Z"/><path class="cls-94" d="M1633.25,1127.57l-6.9-.85-15.8-3.18-.67,36.52,2.76,113.6s30.37-80.78,31.15-82.72,13.84-58.69,12.77-60.16-4.56-6.84-4.56-6.84Z"/><path class="cls-95" d="M1639.62,1140.75c-2.73-5.37-7.3-12.54-6.37-13.18s17.89-14,17.89-14L1656,1124Z"/><path class="cls-95" d="M1626.35,1126.72c-.63,1.78-5.15,14.25-5.61,13.93s-10.19-16.62-10.19-17.11,2.22-11.35,3.13-10.86S1626.35,1126.72,1626.35,1126.72Z"/><path class="cls-90" d="M1686.49,1131.93a85.28,85.28,0,0,1-17.78-3.67c-1.08-.17-15.13-11.94-15.13-11.94l-6.94,32.91s-25,65.7-24.56,79.08,1.27,51.18,2.25,65-.25,44.16,17.75,52.5,57-7.54,57-7.54-16.84-88-16.83-89.16-2-75.24-1.24-93.57S1686.49,1131.93,1686.49,1131.93Z"/><path class="cls-90" d="M1610.89,1116.21c.19,2,1.16,16.36,1.33,22.77s5.4,79.14,5.4,79.14,12.27,46.92.18,78.23-12.8,46.56-22.21,47.39-29-12.54-29.18-13.21,9.15-65.8,9-81.27,7.82-77.78,6.14-93.13a178.75,178.75,0,0,1-1.28-24.71s17.34,1.22,22.68-4.36A48.06,48.06,0,0,0,1610.89,1116.21Z"/><path class="cls-96" d="M1317.94,1155.61l23.58,41,71.66,22.05,9.42-27.37-47-60.94-40.48,1.07C1335.46,1146.61,1326.29,1153,1317.94,1155.61Z"/><path class="cls-97" d="M1317.94,1155.61c8.35-2.64,17.52-9,17.14-24.19l-30.59.81Z"/><polygon class="cls-98" points="1627.83 1315.77 1371.64 1184.17 1341.52 1196.61 1607.21 1333.1 1627.74 1315.92 1627.83 1315.77"/><polygon class="cls-98" points="1661.59 1333.31 1637.88 1348.85 1680 1370.48 1710.12 1358.04 1661.67 1333.15 1661.59 1333.31"/><rect class="cls-99" x="1679.15" y="1307.32" width="24.83" height="54.46" transform="translate(-268.45 2229.41) rotate(-62.81)"/><polygon class="cls-99" points="1639.06 1293.89 1639.09 1293.64 1382.99 1162.08 1371.64 1184.17 1627.83 1315.77 1639.06 1293.89"/><polygon class="cls-100" points="1673.02 1311.07 1721.46 1335.95 1714.03 1304.22 1673.74 1283.52 1673.19 1310.73 1673.02 1311.07"/><polygon class="cls-100" points="1382.99 1162.08 1639.09 1293.64 1641.66 1267.04 1375.56 1130.35 1382.99 1162.08"/><polygon class="cls-101" points="1661.67 1333.15 1627.83 1315.77 1627.74 1315.92 1607.21 1333.1 1637.88 1348.85 1661.59 1333.31 1661.67 1333.15"/><polygon class="cls-97" points="1627.83 1315.77 1661.67 1333.15 1673.02 1311.07 1639.09 1293.64 1639.06 1293.89 1627.83 1315.77"/><polygon class="cls-101" points="1673.02 1311.07 1673.19 1310.73 1673.74 1283.52 1641.66 1267.04 1639.09 1293.64 1673.02 1311.07"/><path class="cls-87" d="M1595.69,1286.28l-36.93,6.93c-3.62-1.56-16.15-9.17-14.75-12.94l28.08-10.27c-15.07-3.59-16.44-9.18,7.78-4.38l18.47,8C1602,1275.13,1599.32,1287.84,1595.69,1286.28Z"/><path class="cls-85" d="M1703,1154.78s-6.73-26.4-19.89-22.92S1667.2,1175,1667.2,1175s1.5,42.72-.84,63.84c-.76,6.88-46.58,21.61-76.15,31.8-2.84,1-2.62,16.56-1.25,16.68,28.92,2.47,107.13-12,109-33.34C1701.86,1208.76,1703,1154.78,1703,1154.78Z"/><path class="cls-77" d="M1046.36,207.05l-12.59-6.48-17.23,6.62-6.73,1.72-6.28,3.9-4.32,1.8S988.77,244.12,987.34,251s-19.08,33.83-19.08,33.83l-7.92,14.4s25.37,1.63,40.13,2.71,59.57,12,59.57,12l1.08-70.54Z"/><path class="cls-102" d="M1010.37,210.27c0-3.59-.36-9-4.68-7.9s-16.2,4.68-21.59-.36-15.48-33.47-15.48-35.27,33.11-15.84,33.11-15.84l22,5.4-1.44,24.83s-1.44,7.92-2.16,10.8,2.16,7.92,2.88,9.36,6.12,9.72,2.88,11.88S1010.37,210.27,1010.37,210.27Z"/><path class="cls-103" d="M1024.41,188.33c-4.32,1.44-13.32-4.32-14-6.48s2.16.72,5-3.6,2.52-18.71-5.4-16.55-4.32,6.84-4.32,6.84c-5.76-1.8-13.32,0-19.07,0s-11.52,6.47-15.84,5.4-15.12-5-13-14.4,7.2-17.28,20.52-18.36,19.79-8.64,29.51-6.12,26.28,5.4,23.4,19.08S1024.41,188.33,1024.41,188.33Z"/><path class="cls-104" d="M1023,196.25s11.16,2.16,10.8,4.32-1.8,13.32-5.4,15.12-10.8,6.47-10.8,6.47l-6.48-11.51s7.56-3.6,8.28-5.76S1023,196.25,1023,196.25Z"/><path class="cls-20" d="M999.21,214.61c-5.4-.36-27,10.79-29.15,17.27S954.94,283.35,956.38,287s6.84,11.52,9,7.56S990.21,252,990.21,250.6,999.21,214.61,999.21,214.61Z"/><path class="cls-20" d="M964.66,231.52c-2.88-.72-10.44-3.6-10.44-3.6s-20.51,38.16-19.07,45-4.32,23.76,10.07,27.36,22-6.84,22-12.6,5.76-45.71,4.68-48.23a40.28,40.28,0,0,1-1.8-7.56Z"/><path class="cls-102" d="M956.84,230.35V219.84c0-3.19,4.13-16.88,5.63-17.26s17.82,5.63,17.82,5.63S980.1,221,978,222.28s-10.51,12.38-10.51,12.38Z"/><path class="cls-105" d="M984.1,202c-.36,4.68,2.16,6.84-.72,8.28s-11.52,10.44-14,7.56-3.24-10.8-4.68-11.52-4-3.6-.36-5,13-5.76,16.2-4A6.82,6.82,0,0,1,984.1,202Z"/><path class="cls-102" d="M1004.8,283.47c-2.77-1.23-1.74-1.09-5.24-4-14.84-12.38-19.87-6.65-28.29-6.63-5.55,0-15,13.51-9.08,13.06,1-.08,7.47-7.4,11.35-5.45,3.06,1.53,2,3.92,2.31,4.88.61,2.15,7.39,9.24,13.24,9.24s15.09.92,15.09.92Z"/><path class="cls-20" d="M1037.36,209.93c-3.23,2.16-15.83,12.95-14,20.15s34.55,54,30.23,58.31-35.27-12.24-36.35-12.6-18,2.88-18,2.88-4.68,13,.36,18.36,21.6,28.07,44.27,27,44.27,5,47.15-12.23-20.15-83.15-26.63-91.06S1047.08,203.45,1037.36,209.93Z"/><path class="cls-16" d="M993,173.16c-1-.29-9.57.63-9.57.63S980.6,176.48,986,176s10.18-.77,10.18-.77Z"/><path class="cls-106" d="M988.86,193a5.14,5.14,0,0,0,.65-.23.61.61,0,1,0-.51-1.11,5.91,5.91,0,0,1-4.41,0c-.86-.37-2.39-3.37-2.85-9.86a.61.61,0,1,0-1.22.09c.12,1.61.83,9.7,3.58,10.89A7,7,0,0,0,988.86,193Z"/><path class="cls-16" d="M990.48,177.26c-.66-.56-3.12,1.66-1.47,3.52S992.41,178.85,990.48,177.26Z"/><path class="cls-106" d="M995.4,195.52l-7.14,4.18a5.32,5.32,0,0,1,1.2-4.48C991.26,193.27,995.4,195.52,995.4,195.52Z"/><path class="cls-16" d="M973,178.12c.74-.68,5.36-2.29,5.36-2.29s3.72,1.21-1.34,3.11a56.63,56.63,0,0,0-6,2.43Z"/><path class="cls-16" d="M974.08,181.85c.23-.84,3.51-.46,3.25,2S973.44,184.26,974.08,181.85Z"/><polygon class="cls-7" points="2137.22 961.25 2133.22 961.25 2133.22 611.38 1688.54 611.38 1688.54 607.38 2137.22 607.38 2137.22 961.25"/><polygon class="cls-7" points="1142.41 710.12 1138.41 710.12 1138.41 0 1954.92 0 1954.92 159.03 1950.92 159.03 1950.92 4 1142.41 4 1142.41 710.12"/><polygon class="cls-7" points="185.41 461.28 181.41 461.28 181.41 388.13 1140.41 388.13 1140.41 392.13 185.41 392.13 185.41 461.28"/><rect class="cls-7" x="818.99" y="873.08" width="4" height="282.5"/><polygon class="cls-7" points="1142.41 1734.3 273.26 1734.3 273.26 1158.24 277.26 1158.24 277.26 1730.3 1138.41 1730.3 1138.41 1477.5 1142.41 1477.5 1142.41 1734.3"/><circle class="cls-7" cx="278.22" cy="1157.51" r="20.74"/><circle class="cls-7" cx="1140.41" cy="707.16" r="20.74"/><circle class="cls-7" cx="1949.26" cy="164.96" r="20.74"/><circle class="cls-7" cx="1140.41" cy="1471.57" r="20.74"/><circle class="cls-7" cx="1685.57" cy="603.46" r="20.74"/><circle class="cls-7" cx="823.38" cy="879" r="20.74"/><circle class="cls-7" cx="1131.52" cy="393.1" r="20.74"/></g></g></g></svg>